<svg width="100" height="100" viewBox="0 0 100 100" fill="none" xmlns="http://www.w3.org/2000/svg">
<g clip-path="url(#clip0_627_3717)">
<path d="M71.875 40.625H90.625V21.875" stroke="url(#paint0_linear_627_3717)" stroke-width="1.4" stroke-linecap="round" stroke-linejoin="round"/>
<path d="M73.5936 75C68.6797 79.6369 62.5083 82.7228 55.8505 83.8724C49.1928 85.0219 42.3439 84.1839 36.1596 81.4633C29.9753 78.7426 24.7299 74.2599 21.0788 68.5752C17.4276 62.8904 15.5326 56.2558 15.6306 49.5003C15.7285 42.7447 17.815 36.1678 21.6294 30.5913C25.4439 25.0148 30.817 20.686 37.0775 18.1458C43.3381 15.6055 50.2084 14.9665 56.83 16.3085C63.4516 17.6505 69.531 20.9141 74.3084 25.6914L90.6249 40.625" stroke="url(#paint1_linear_627_3717)" stroke-width="1.4" stroke-linecap="round" stroke-linejoin="round"/>
</g>
<defs>
<linearGradient id="paint0_linear_627_3717" x1="81.25" y1="21.875" x2="81.25" y2="40.625" gradientUnits="userSpaceOnUse">
<stop stop-color="#378C92"/>
<stop offset="1" stop-color="#378C92"/>
</linearGradient>
<linearGradient id="paint1_linear_627_3717" x1="53.1259" y1="15.6235" x2="53.1259" y2="84.3736" gradientUnits="userSpaceOnUse">
<stop stop-color="#378C92"/>
<stop offset="1" stop-color="#378C92"/>
</linearGradient>
<clipPath id="clip0_627_3717">
<rect width="100" height="100" fill="white"/>
</clipPath>
</defs>
</svg>
