<?xml version="1.0" encoding="UTF-8"?>
<svg version="1.1" viewBox="0 0 2048 396" width="1280" height="1280" xmlns="http://www.w3.org/2000/svg">
<path transform="translate(734,16)" d="m0 0h36l16 4 16 6 14 8 14 11 2 2v9l-7 63-7 65v16l5 5 3 1h8l10-2 9 33v6l-9 3-15 3h-15l-14-3-12-5-10-8-7-11-4-13v-19l6-56 7-70-8-4-6-2-7-1h-9l-12 3-7 4-7 6-5 10-3 10h33v11l-3 29-1 1h-33l-1 18-5 46-7 67-3 17-7 14-5 6-9 6-4-1-18-11-14-9-6-4 1-3 8-7 5-10 3-13 4-39 8-74 1-3h-22l1-15 3-26h22l1-10 3-14 5-12 8-11 4-5 10-8 10-6 21-7z" fill="#ffffff"/>
<path transform="translate(43,43)" d="m0 0h52l7 10 14 22 32 50 14 22 9 14v2h2l1-18 5-47 6-54 1-1h52l-2 24-10 96-7 65-2 16h-51l-22-33-25-38-19-29-11-17v-2h-2l-1 15-5 48-5 44-1 11-1 1h-52l2-27 6-56 8-73 4-40z" fill="#ffffff"/>
<path transform="translate(341,86)" d="m0 0h24l17 3 13 5 14 8 12 12 7 14 2 8v13l-4 13-4 8-11 11-15 8-9 3-12 2h-27l-15-3-20-8-7-4 3 10 7 9 10 7 13 4 15 1 16-2 12-4 11-5 16 34v2l-18 8-19 5-13 2h-26l-15-3-18-6-14-8-10-9-9-10-7-14-4-14v-26l5-18 6-12 8-11 12-12 14-9 16-7 16-4zm11 39-14 2-14 7-12 12-3 5v4l14 6 16 4h15l12-3 8-5 5-6 1-9-4-8-9-6-5-2z" fill="#ffffff"/>
<path transform="translate(1143,86)" d="m0 0h20l18 3 13 5 13 7 12 11 7 11 3 9v21l-4 11-6 9-10 9-16 8-13 3-7 1h-22l-17-3-16-6-13-7 5 13 9 10 11 6 14 3h16l14-3 15-6 4-1 11 23 4 9v3l-15 7-23 6-14 2h-19l-14-2-20-6-12-6-11-8-10-10-8-13-5-14-1-5v-25l4-16 8-16 8-11 10-10 14-9 15-7 15-4zm4 39-12 3-10 5-10 9-7 10 1 3 11 5 13 4 5 1h18l10-3 8-5 5-6 1-9-4-8-8-6-5-2-6-1z" fill="#ffffff"/>
<path transform="translate(1690,86)" d="m0 0h20l14 2 16 5 13 7 11 9 8 11 4 11 1 5v13l-3 12-6 10-5 6-10 7-13 6-12 3-8 1h-22l-20-4-21-9-5-3 6 14 7 8 10 6 16 4h16l15-3 12-5 4-2h3l15 33v2l-16 7-22 6-15 2h-18l-19-3-18-6-14-8-13-11-8-11-5-10-4-13-1-7v-15l3-16 6-15 9-14 8-9 13-10 15-8 16-5zm4 39-12 3-11 6-11 11-4 6 1 4 10 5 13 4 5 1h18l13-4 8-6 4-8-2-9-7-8-9-4-5-1z" fill="#ffffff"/>
<path transform="translate(458,90)" d="m0 0h50l-3 31-6 60v11l3 7 6 5 5 2h11l9-3 11-6 7-6 3-4 3-22 7-62 2-13h49l-1 19-6 58-3 26v20l4 10 6 10-10 4-34 13-4-2-7-7-5-10v-4l-13 10-16 8-14 4h-21l-12-4-11-6-9-9-6-10-3-8-2-8v-20l6-59 3-30z" fill="#ffffff"/>
<path transform="translate(878,90)" d="m0 0h49v9l-7 69-1 10v16l4 7 6 4 3 1h13l13-5 13-10 4-7 9-81 2-13h49l-1 16-10 95 1 13 5 12 5 7-39 15-7 2-9-9-4-8-1-6-5 3-7 6-12 7-15 5-5 1h-19l-13-4-11-6-10-10-8-16-2-8v-25l7-65 2-22z" fill="#ffffff"/>
<path transform="translate(1351,87)" d="m0 0h13l14 3 12 6 9 7 6 8 6 12 3 13v21l-7 65-2 21-1 1h-49l1-14 6-52 2-21-1-13-4-8-9-6-3-1h-16l-10 4-9 7-7 7-3 5-6 50-4 37-1 5h-48l-1-3 10-92 1-17-2-12-4-8-5-7 15-6 27-10 7 1 7 8 4 8v6l8-7 11-8 12-6 11-3z" fill="#ffffff"/>
<path transform="translate(1518,85)" d="m0 0h25l21 5 12 5 15 9 4 3-1 4-14 19-10 13-4-2-8-7-11-5-9-2h-12l-11 3-10 5-9 8-5 9-4 11-1 12 3 11 6 10 9 6 7 3 6 1h12l14-4 12-7 8-6 6 9 14 23 2 5-10 7-19 9-19 5-6 1h-26l-17-4-13-5-11-7-10-9-7-9-7-14-3-12-1-7v-13l4-22 7-16 9-13 11-11 15-10 17-7z" fill="#ffffff"/>
<path transform="translate(734,16)" d="m0 0h36l16 4 16 6 14 8 14 11 2 2v9l-7 63-7 65v16l5 5 3 1h8l10-2 9 33v6l-9 3-15 3h-15l-14-3-12-5-10-8-7-11-4-13v-19l6-56 7-70-8-4-6-2-7-1h-9l-12 3-7 4-6 4v-6l6-9 4-4v-8l-2-2-1-6-5-6-6-3-5-2 3-2z" fill="#ffffff"/>
<path transform="translate(458,90)" d="m0 0h50l-3 31-6 60v11l3 7 4 6 9 3 5 2v2l4 2 4 7-1 5-2 6-4 1 1 4-8 4-12 3h-9l-4 1h-7l-11-4-10-9-6-8-4-8-3-12v-20l6-59 3-30z" fill="#ffffff"/>
<path transform="translate(878,90)" d="m0 0h49v9l-7 69-1 10v16l4 7 6 4 12 2 1 5h-2l-1 4-3 2v2h-4l3 5-4 4-1 8-2 4-3 2h-2l-1 2-7 3-3 1-13-4-11-6-10-10-8-16-2-8v-25l7-65 2-22z" fill="#ffffff"/>
<path transform="translate(1178,89)" d="m0 0 9 2 17 8 10 8 8 9 6 12 1 4v21l-4 11-6 9-10 9-11 6-2-1 3-4 1-4h-3l-3-1 1-3-17-1-2-4 7-5 3-5-1-6 1-2-4 1v2l-5-1 2-6-1-9-1-4 8 3 3 5 1-5-6-8 1-7h-2l-3-6-4-1v-3l-4-1-3-1v-6l8-5 1-2 6-2-1-4-4-2z" fill="#ffffff"/>
<path transform="translate(346,124)" d="m0 0h17l5 1h7l5 3 7 8 2 4v13l-3 5-9 6h-11l-1 1h-11v-1l12-3 8-5 4-5 1-9-4-8-10-6-13-2h-9z" fill="#ffffff"/>
<path transform="translate(1193,202)" d="m0 0 3 4 12 26v3l-15 7-18 5-3-1 13-5 7-1v-3l4-2-1-5 4-4-7 1 2 3v3l-4-1-2-2-4-1-4 1-2-3 1-5 4-3h2v-2l2-1h7l-1-2 3-2-3-7z" fill="#ffffff"/>
<path transform="translate(608,223)" d="m0 0 4 5 3 5-10 4-9 3v-2l6-5 6-3-1-4z" fill="#ffffff"/>
<path transform="translate(43,43)" d="m0 0h52v1l-21 1h-25l-5 4-2 4z" fill="#ffffff"/>
<path transform="translate(324,185)" d="m0 0 10 2 20 6v1l-13-1-16-5-2-2z" fill="#ffffff"/>
<path transform="translate(734,16)" d="m0 0 4 1-14 5h-8l3-2z" fill="#ffffff"/>
<path transform="translate(611,90)" d="m0 0h4l-1 19h-1v-7l-2-1 1-9z" fill="#ffffff"/>
<path transform="translate(1058,170)" d="m0 0 2 3 1 12h-2v-4h-2v-8z" fill="#ffffff"/>
</svg>
