<?xml version="1.0" encoding="UTF-8"?>
<svg version="1.1" viewBox="0 0 2048 696" width="1280" height="1280" xmlns="http://www.w3.org/2000/svg">
<path transform="translate(1359,134)" d="m0 0 35 1 16 2 16 5 17 8 11 8 9 8 10 13 8 15 6 18 3 18v22l-3 17-5 14-8 15-9 11-9 9-15 10-13 6-17 5-13 2-76 1-1-1v-206zm-10 27v154h39l16-2 15-5 13-7 12-11 7-9 6-12 4-16 1-8v-11l-2-16-5-15-7-12-9-10-10-8-17-8-11-3-8-1z" fill="#ffffff"/>
<path transform="translate(193,133)" d="m0 0h11l16 2 15 4 15 6 8 5-2 6-7 15-5-1-17-7-17-4h-20l-10 3-9 6-5 8-1 3v14l4 8 9 8 16 8 28 12 15 8 10 9 6 7 5 11 2 7 1 8v11l-3 14-6 12-7 9-7 6-10 6-16 5-18 2-17-1-17-4-16-6-17-9-2-3 9-16 2-4 4 1 17 9 18 6 6 1h19l13-4 9-6 6-7 3-10v-12l-4-10-7-8-14-8-23-10-18-8-11-7-11-11-6-12-2-8v-17l4-14 7-11 9-9 14-8 14-4z" fill="#ffffff"/>
<path transform="translate(370,218)" d="m0 0h11l12 2 12 5 9 7 8 8 6 10 4 10 3 17v9l-3 17-8 16-9 10-10 7-12 5-14 3h-16l-12-3-14-7-9-9-1 73-24 1-2-1-1-3 1-174h22l2 4 1 15 12-10 14-8 10-3zm-13 23-10 4-9 7-6 8-4 9-1 7v14l3 11 6 10 9 7 9 4 4 1h14l11-3 10-6 8-8 5-10 1-4v-20l-4-11-7-9-9-7-11-4z" fill="#ffffff"/>
<path transform="translate(1847,218)" d="m0 0h10l12 2 12 6 10 9 5 5 2-17h24l1 1v116l-1 1h-26v-17l-8 6-9 7-15 6-6 1h-18l-12-3-14-7-10-9-8-13-4-12-1-5v-25l3-12 7-14 8-10 13-9 12-5zm3 22-10 3-9 6-7 8-4 8-2 6v19l5 12 4 6 7 7 12 6 3 1h17l10-3 11-8 7-11 2-6v-27l-5-10-8-9-12-6-7-2z" fill="#ffffff"/>
<path transform="translate(1576,218)" d="m0 0h10l12 2 14 7 7 6 6 7 2-17h24l1 1v117h-26l-1-1v-9l1-8-8 7-10 7-11 5-10 2h-17l-16-4-12-7-7-6-7-10-5-11-3-14v-20l4-16 5-10 7-9 7-7 14-8 10-3zm3 22-10 3-11 8-7 10-3 7-1 5v16l4 11 6 9 8 7 10 5 4 1h16l10-3 10-7 7-9 3-8v-29l-5-10-8-8-14-7-5-1z" fill="#ffffff"/>
<path transform="translate(1028,218)" d="m0 0h12l11 2 14 7 10 9 3 4 2-17h25v118h-26l-1-1v-16l-12 10-16 8-10 2h-17l-16-4-9-5-9-7-8-11-6-14-2-9v-23l4-15 7-13 11-12 11-7 10-4zm4 22-10 3-11 8-7 10-4 13v14l3 10 6 10 7 7 12 6 4 1h16l10-3 9-6 7-8 4-10 1-13v-10l-2-9-6-9-9-8-11-5-5-1z" fill="#ffffff"/>
<path transform="translate(827,223)" d="m0 0h26l1 1v76l2 11 4 6 6 4 3 1h12l10-4 9-8 6-10 3-11 1-65 1-1h26v118h-24l-1-3-1-16-11 12-13 8-15 4h-15l-10-3-11-8-7-11-2-7z" fill="#ffffff"/>
<path transform="translate(1151,120)" d="m0 0h26l1 1v220h-26l-1-1z" fill="#ffffff"/>
<path transform="translate(735,171)" d="m0 0h27v53h33v19l-1 1h-32v97h-26l-1-2v-95h-21v-20h21z" fill="#ffffff"/>
<path transform="translate(1709,171)" d="m0 0h27v53h33v20h-33v97h-26l-1-3v-93l-21-1v-20h21z" fill="#ffffff"/>
<path transform="translate(611,218)" d="m0 0h5v25l-1 1-16 3-10 5-8 7-7 11-3 10-1 61-24 1-3-2v-117h24l1 1 1 24 4-4 7-8 8-7 11-6z" fill="#ffffff"/>
<path transform="translate(651,223)" d="m0 0h26l1 1v117h-26l-1-1z" fill="#ffffff"/>
<path transform="translate(471,223)" d="m0 0h26v118l-24 1-2-1-1-5v-91z" fill="#ffffff"/>
<path transform="translate(971,555)" d="m0 0 4 4-1 7-1 1h-5l2 9-1 8-4 6-10 5h-15v7l17 3 9 3 5 6 2 5v8l-3 6-6 4-8 2h-11l-10-3-6-5-3-5-1-6 3-7 4-5-1-5-1-1v-7l2-3v-5l-3-5v-8l4-8 9-6 4-1h9l8 1z" fill="#ffffff"/>
<path transform="translate(1499,546)" d="m0 0 7 1 3 4 15 42 5 12v2h-12l-3-5-2-8-22-2-1 8-3 6-1 1h-11l6-17 10-28 6-14z" fill="#ffffff"/>
<path transform="translate(1322,559)" d="m0 0h4l-3 11-9 31-3 5-1 1h-8l-3-4-6-23-1-2-3 6-5 19-3 4h-8l-3-4-11-38v-5h10l6 26 1 7 1 1 3-8 5-20 3-6h8l2 2 8 33 4-13 5-20 1-2z" fill="#ffffff"/>
<path transform="translate(571,559)" d="m0 0h9l9 3 4 6 2 8 1 19 1 8-2 3h-6l-5-1-5 2h-10l-8-3-5-5-1-2v-8l4-6 8-4 10-2h8l-3-7-1-1h-13l-9 2-2-2 1-5 8-4z" fill="#ffffff"/>
<path transform="translate(774,559)" d="m0 0h9l8 3 5 6 3 31v5l-5 2h-10l-5 1h-8l-8-3-5-6-1-8 3-5 5-4 8-3h14l-1-7-2-2h-15l-5 2-4-1v-6l5-3z" fill="#ffffff"/>
<path transform="translate(1182,542)" d="m0 0h7l1 1v20l11-4 9 1 5 3 3 6 1 11v27h-11v-31l-1-7-10 1-6 3-1 2v31l-1 1h-9v-64z" fill="#ffffff"/>
<path transform="translate(1400,542)" d="m0 0h7l1 4v17l7-3 10-1 6 3 4 6 2 15v24h-10l-1-4v-23l-2-10-6-1-9 3-1 3v31l-1 1h-9l-1-3v-60z" fill="#ffffff"/>
<path transform="translate(523,546)" d="m0 0h13l7 3 1 2v8l-2 1-10-4h-7l-9 3-6 9-1 3v11l4 9 5 4 6 2 11-1 8-4h2l1 6-3 5-7 4h-19l-8-4-5-4-5-9-2-9v-8l3-11 4-6 7-6 7-3z" fill="#ffffff"/>
<path transform="translate(898,559)" d="m0 0 8 1 5 3 3 6 1 5 1 20v12l-1 1h-10l-1-34-1-3-2-1h-7l-7 4-1 2v31l-1 1h-9v-46l1-1h6l4 3z" fill="#ffffff"/>
<path transform="translate(1088,559)" d="m0 0 7 1 1 30 2 6 2 1 10-1 3-2 1-33 1-1h8l1 1v46h-8l-2-2-7 1-2 1h-10l-6-4-3-6-1-5v-18l1-14z" fill="#ffffff"/>
<path transform="translate(680,560)" d="m0 0h11v27l2 9 8 1 7-2 1-35h10v47h-8l-2-2-6 1-2 1h-11l-6-4-3-8z" fill="#ffffff"/>
<path transform="translate(1361,547)" d="m0 0h9l1 1v12h12v9l-5 1-8-1 1 22 1 6h8l7-1v6l-5 5h-13l-6-4-2-5-1-6v-22l-6-1-2-2v-5l3-2 5-1z" fill="#ffffff"/>
<path transform="translate(1144,547)" d="m0 0h8l1 1v12h12l1 2v6l-5 2h-8v17l1 11 9-1 3-2h3l1 4-2 5-4 3h-12l-5-3-3-3-2-11v-19l-7-3-1-6 4-2h5l-1-11z" fill="#ffffff"/>
<path transform="translate(817,547)" d="m0 0h8l1 1v13l12-1 1 1v8h-14l2 28 4 1 7-2h4v7l-4 4h-14l-6-5-2-6-1-26-7-1-1-1v-6l5-2h4l-1-11z" fill="#ffffff"/>
<path transform="translate(652,559)" d="m0 0h10l5 2 2 2v8l-2 1-7-3h-9l-5 3-4 5v11l4 7 2 2 8 1 15-5v7l-5 5-5 2h-13l-7-3-6-5-5-10v-9l3-9 5-6 9-5z" fill="#ffffff"/>
<path transform="translate(1020,547)" d="m0 0h6l3 3-2 11 12-1 2 2v7l-6 1-8-1 2 26 1 2h8l5-2 1 1v8l-5 3h-12l-5-3-3-5-1-4-1-25-6-2-1-5 4-3h4v-11z" fill="#ffffff"/>
<path transform="translate(661,165)" d="m0 0h8l7 4 4 5 1 2v8l-6 8-6 3h-7l-8-4-4-5-1-3v-7l6-8z" fill="#ffffff"/>
<path transform="translate(481,165)" d="m0 0h7l6 3 6 7 1 7-3 6-7 6-2 1h-8l-6-3-5-5-2-9 4-7 6-5z" fill="#ffffff"/>
<path transform="translate(610,540)" d="m0 0h10v67h-11z" fill="#ffffff"/>
<path transform="translate(740,539)" d="m0 0 4 1v67h-10v-67z" fill="#ffffff"/>
<path transform="translate(1540,547)" d="m0 0h10l1 59-1 1h-11v-59z" fill="#ffffff"/>
<path transform="translate(1072,559)" d="m0 0h6l1 1v8l-1 1-14 2v35l-1 1h-9v-46l4-1h12z" fill="#ffffff"/>
<path transform="translate(851,560)" d="m0 0h10v47h-10l-1-46z" fill="#ffffff"/>
<path transform="translate(1338,559)" d="m0 0 5 1v47h-10l-1-5 1-41z" fill="#ffffff"/>
<path transform="translate(941,611)" d="m0 0 10 1 10 3 3 4v6l-4 4-5 2h-9l-7-3-4-5 1-7z" fill="#ffffff"/>
<path transform="translate(946,567)" d="m0 0h7l5 3 3 4-1 7-4 4-7 2-8-2-3-5 1-8 5-4z" fill="#ffffff"/>
<path transform="translate(572,585)" d="m0 0h14v7l-2 5-8 2h-8l-3-2v-8l4-3z" fill="#ffffff"/>
<path transform="translate(783,584)" d="m0 0h4l1 2-1 10-3 2-5 1h-9l-3-4v-5l4-4z" fill="#ffffff"/>
<path transform="translate(1501,560)" d="m0 0 2 2 6 21-5 1h-11l3-10z" fill="#ffffff"/>
<path transform="translate(1338,538)" d="m0 0 7 1 2 3v6l-3 3h-6l-4-4 1-6z" fill="#ffffff"/>
<path transform="translate(856,538)" d="m0 0h5l4 4-1 7-3 2h-5l-4-3v-6z" fill="#ffffff"/>
</svg>
