<?xml version="1.0" encoding="UTF-8"?>
<svg version="1.1" viewBox="0 0 2048 471" width="1280" height="1280" xmlns="http://www.w3.org/2000/svg">
<path transform="translate(663,9)" d="m0 0h16v432l-4 10-5 6-10 5-10 1-8-2-6-4-7-10-5-16-16-70-26-115-22-97-14-62-5-25-29 1v397h-16l-1-1v-397l1-12 2-2 4-1h49l3 2 5 18 16 72 23 102 24 106 19 85 4 10 6 3 6-1 4-4 1-3z" fill="#ffffff"/>
<path transform="translate(1414)" d="m0 0h20l21 3 14 4 12 5 11 7 10 9 9 14 6 14 4 16 1 7 1 25v96h-16l-1-1-1-114-3-18-4-12-6-11-9-10-11-7-12-5-11-3-7-1h-32l-16 3-13 5-12 8-7 7-8 13-6 16-2 12-1 22v272l2 19 5 17 7 13 9 10 14 9 14 5 18 3h24l17-3 14-5 12-8 9-9 7-11 5-14 3-18 1-123 1-1h15l1 1v106l-1 24-4 20-6 16-7 11-11 12-14 9-15 6-18 4-10 1h-21l-17-2-19-5-16-8-13-11-9-12-7-15-5-19-2-20v-291l2-15 4-16 9-19 9-11 10-9 12-7 17-6z" fill="#ffffff"/>
<path transform="translate(988,9)" d="m0 0h87l20 2 19 5 16 8 10 8 7 8 8 16 5 16 2 15v79l-3 18-5 13-6 11-8 9 12 14 5 11 4 15 1 8 1 119 2 23 4 18 8 22v3l-11 4h-5l-7-22-4-18-3-24-1-25v-79l-1-19-3-18-5-9-5-6-8-7-6-7 1-4 10-10 7-10 5-11 4-17 1-19v-45l-2-24-4-16-7-13-6-7-10-7-14-6-18-4-11-1h-84l-3 2-1 3-1 428-1 1h-16v-429l3-10 7-8 5-3z" fill="#ffffff"/>
<path transform="translate(477,9)" d="m0 0h94l8 4 7 8 4 13 13 62 14 65 7 33 2 7v-192h15l1 1v257l-3 5-9 2-3-4-5-18-18-80-20-88-11-49-4-8-2-1h-86l-5 3-1 3-1 428h-16l-1-22v-328l1-81 3-9 6-7 5-3z" fill="#ffffff"/>
<path transform="translate(91,39)" d="m0 0h25l16 4 9 5 10 9 8 16 3 14v113h-16l-1-1v-92l-1-20-4-13-6-8-8-6-8-3-6-1h-19l-12 3-8 6-6 7-5 12-1 7v63l3 15 7 14 10 10 15 10 18 10 26 14 19 12 10 8 10 9 8 11 7 14 4 13 2 16v69l-2 19-4 16-7 16-8 11-10 10-13 8-12 5-15 4-15 2h-21l-17-2-18-5-9-4-10-6-10-9-8-10-8-16-4-15-2-12-1-12v-103h13l3 1 1 99 2 20 5 16 6 12 11 12 11 7 12 5 13 3 8 1h24l17-3 16-6 11-8 5-5 7-8 6-13 4-15 2-23v-54l-2-18-5-14-7-11-11-12-10-9-18-13-19-11-28-15-12-7-11-9-9-12-5-14-2-12v-73l4-16 6-12 6-7 10-7 10-4z" fill="#ffffff"/>
<path transform="translate(91)" d="m0 0h20l21 3 20 6 16 9 12 11 7 11 7 15 5 21 1 15v109h-16l-1-101-1-17-3-16-5-13-6-10-8-9-11-7-12-5-11-3-7-1h-32l-16 3-12 5-10 6-7 6-7 10-7 15-4 17-1 13v64l2 23 5 17 6 10 7 8 13 10 21 13 22 13 23 13 15 10 12 10 9 13 4 10v75l-3 15-4 10-7 9-8 7-11 5-15 3h-25l-15-4-9-5-9-8-6-10-4-11-2-12v-105h15l1 1 1 103 3 12 4 8 8 8 11 5 5 1h22l12-4 7-5h2l7-14 2-10 1-26v-30l-1-16-4-9-7-8-9-8-20-13-46-25-17-11-10-8-5-5-8-9-6-12-4-18-2-23v-71l2-17 5-19 8-16 7-9 5-5 8-7 10-6 18-6z" fill="#ffffff"/>
<path transform="translate(1791,9)" d="m0 0h94l7 3 5 4 5 9 3 18 17 164 17 162 9 84v4l-12 2-4-1-5-43-26-249-14-133-2-6-3-1h-89l-3 2-3 15-18 158-14 124-11 96-4 34-1 4-14-1-2-1 1-14 16-140 15-133 13-114 3-26 4-11 5-6 6-3z" fill="#ffffff"/>
<path transform="translate(1013,47)" d="m0 0h58l16 2 12 4 10 6 7 7 6 12 3 13v71l-2 12-4 10-8 10-10 8-17 9-9 4-5 3h-2l-2 5 1 7 5 5 26 5 12 5 8 7 5 10 2 7 1 117 2 20 5 25 6 22 2 6v4l-11 4-5-1-8-26-5-24-2-15-1-14-1-112-3-8-7-6-12-6-22-7-8-4-6-5-4-8v-10l4-8 5-6 13-8 19-9 12-9 6-9 3-15v-57l-2-14-5-10-7-6-9-4-10-2-53-1 1 396-1 1h-16v-408l2-4z" fill="#ffffff"/>
<path transform="translate(1813,47)" d="m0 0h50l4 2 2 9 24 234 17 164v5l-11 2-5-1-11-103-30-285-1-11h-21l-8 1-6 55-7 60-15 130-15 132-3 22h-9l-7-1 1-17 15-129 29-252 2-13 2-3z" fill="#ffffff"/>
<path transform="translate(1414,39)" d="m0 0h25l16 4 12 7 9 10 5 11 3 11 1 8v110h-16l-1-100-1-15-3-10-7-10-10-6-11-3h-20l-9 2-9 5-7 7-6 13-1 5v294l4 13 4 6 5 5 8 5 10 3h22l10-3 10-6 6-8 3-9 1-5 1-16 1-107h15l1 1v118l-3 18-7 14-7 8-9 6-11 4-11 2h-25l-15-4-10-5-10-10-7-14-3-11-1-7-1-46v-122l1-124 3-14 7-14 9-10 10-6 12-4z" fill="#ffffff"/>
<path transform="translate(837,47)" d="m0 0h87v15l-20 1h-54l-1 397h-17v-408z" fill="#ffffff"/>
<path transform="translate(722,47)" d="m0 0h84l4 2 1 3v408h-16l-1-72v-311l1-14h-68l-5-1z" fill="#ffffff"/>
<path transform="translate(2029,9)" d="m0 0h16v451h-16l-1-9v-441z" fill="#ffffff"/>
<path transform="translate(397,12)" d="m0 0 8 1 8 2-1 10-15 62-22 92-24 101-2 9-1 40v131h-16l-1-4v-161l2-14 25-105 28-117z" fill="#ffffff"/>
<path transform="translate(1220,9)" d="m0 0h16l1 5-1 446h-16z" fill="#ffffff"/>
<path transform="translate(1991,9)" d="m0 0h16v451h-16z" fill="#ffffff"/>
<path transform="translate(1258,9)" d="m0 0h16v451h-16z" fill="#ffffff"/>
<path transform="translate(243,12)" d="m0 0h4l4 16 20 89 38 171v172h-15l-1-47v-117l-3-19-26-116-23-103-9-41v-2z" fill="#ffffff"/>
<path transform="translate(282,4)" d="m0 0 3 3 8 36 24 107 4 17 2-4 11-48 19-79 7-30 1-2 15 3-1 9-31 131-14 59-4 8-3 2-6-1-4-9-7-29-26-116-11-49 1-5z" fill="#ffffff"/>
<path transform="translate(722,9)" d="m0 0h202v15l-1 1h-201z" fill="#ffffff"/>
<path transform="translate(837,346)" d="m0 0 5 1 6 2h1v111h-17v-105l3-1 1-7z" fill="#ffffff"/>
<path transform="translate(832,230)" d="m0 0h1v9h2l2 13 1 2 11-3v98l-3 1-5-3h-4l-2 7-3 1z" fill="#BECE05"/>
</svg>
