<svg width="100" height="100" viewBox="0 0 100 100" fill="none" xmlns="http://www.w3.org/2000/svg">
<g clip-path="url(#clip0_627_3705)">
<path d="M21.875 29.6875C21.875 24.3003 24.0151 19.1337 27.8244 15.3244C31.6337 11.5151 36.8003 9.375 42.1875 9.375C47.5747 9.375 52.7413 11.5151 56.5506 15.3244C60.3599 19.1337 62.5 24.3003 62.5 29.6875" stroke="#378C92" stroke-width="1.4" stroke-linecap="round" stroke-linejoin="round"/>
<path d="M25.0005 87.5L13.5473 67.9688C12.5277 66.1753 12.2588 64.0514 12.7993 62.0604C13.3398 60.0695 14.6459 58.3731 16.4325 57.3416C18.2192 56.3101 20.3413 56.0271 22.3358 56.5544C24.3303 57.0817 26.0352 58.3765 27.0786 60.1562L34.3755 71.875V29.6875C34.3755 27.6155 35.1986 25.6284 36.6637 24.1632C38.1288 22.6981 40.116 21.875 42.188 21.875C44.26 21.875 46.2471 22.6981 47.7122 24.1632C49.1774 25.6284 50.0005 27.6155 50.0005 29.6875V51.5625C50.0005 49.4905 50.8236 47.5034 52.2887 46.0382C53.7538 44.5731 55.741 43.75 57.813 43.75C59.885 43.75 61.8721 44.5731 63.3373 46.0382C64.8024 47.5034 65.6255 49.4905 65.6255 51.5625V57.8125C65.6255 55.7405 66.4486 53.7534 67.9137 52.2882C69.3788 50.8231 71.366 50 73.438 50C75.51 50 77.4971 50.8231 78.9623 52.2882C80.4274 53.7534 81.2505 55.7405 81.2505 57.8125V71.875C81.2505 81.25 78.1255 87.5 78.1255 87.5" stroke="#378C92" stroke-width="1.4" stroke-linecap="round" stroke-linejoin="round"/>
</g>
<defs>
<clipPath id="clip0_627_3705">
<rect width="100" height="100" fill="white"/>
</clipPath>
</defs>
</svg>
