<svg width="100" height="100" viewBox="0 0 100 100" fill="none" xmlns="http://www.w3.org/2000/svg">
<g clip-path="url(#clip0_627_3729)">
<path d="M32.8125 62.5C44.0308 62.5 53.125 53.4058 53.125 42.1875C53.125 30.9692 44.0308 21.875 32.8125 21.875C21.5942 21.875 12.5 30.9692 12.5 42.1875C12.5 53.4058 21.5942 62.5 32.8125 62.5Z" stroke="#378C92" stroke-width="2" stroke-linecap="round" stroke-linejoin="round"/>
<path d="M3.99609 78.1249C7.11754 73.3255 11.3883 69.3818 16.4206 66.6517C21.4529 63.9216 27.0874 62.4917 32.8125 62.4917C38.5377 62.4917 44.1721 63.9216 49.2044 66.6517C54.2367 69.3818 58.5075 73.3255 61.6289 78.1249" stroke="#378C92" stroke-width="2" stroke-linecap="round" stroke-linejoin="round"/>
<path d="M67.1875 62.5C72.9124 62.4966 78.5473 63.9243 83.5799 66.6531C88.6126 69.3819 92.8833 73.3254 96.0039 78.125" stroke="#378C92" stroke-width="2" stroke-linecap="round" stroke-linejoin="round"/>
<path d="M59.6445 23.3203C62.4231 22.2121 65.4122 21.7313 68.3981 21.9122C71.3841 22.0931 74.2932 22.9313 76.9177 24.3669C79.5421 25.8025 81.8171 27.8001 83.58 30.2168C85.3429 32.6336 86.5503 35.4099 87.1158 38.3474C87.6813 41.2849 87.5911 44.311 86.8515 47.2096C86.1119 50.1082 84.7412 52.8076 82.8373 55.115C80.9335 57.4224 78.5435 59.2808 75.8382 60.5574C73.1328 61.834 70.1789 62.4974 67.1875 62.5" stroke="#378C92" stroke-width="2" stroke-linecap="round" stroke-linejoin="round"/>
</g>
<defs>
<clipPath id="clip0_627_3729">
<rect width="100" height="100" fill="white"/>
</clipPath>
</defs>
</svg>
