<?xml version="1.0" encoding="UTF-8"?>
<svg version="1.1" viewBox="0 0 2048 696" width="1280" height="1280" xmlns="http://www.w3.org/2000/svg">
<path transform="translate(1777)" d="m0 0h64l27 6 23 7 23 10 20 11 15 10 14 11 10 9 18 18 10 13 12 18 11 20 8 19 6 18 6 26 2 15 1 67v225h-119l-4-27-5-17-8-16-8-12-11-13-13-11-13-8-15-7-18-5-13-2h-22l-18 3-18 6-15 8-12 9-12 11-10 12-9 15-7 17-4 18-2 18-1 1h-119l-1-158v-34l1-78 1-21 4-24 6-23 8-22 10-21 13-21 13-17 14-15 15-14 14-11 23-15 22-11 22-8 32-8zm25 118-21 3-21 7-14 8-12 9-12 11-12 15-11 21-5 15-3 18v71l5-2 25-12 21-7 22-5 20-3 12-1h25l29 3 24 5 21 7 20 9 12 6v-71l-3-17-6-18-10-19-10-13-11-11-13-10-16-9-21-7-18-3z" fill="#ffffff"/>
<path transform="translate(0)" d="m0 0h118l1 1 4 26 7 21 8 15 11 14 11 11 15 11 16 8 14 5 20 4h27l15-3 20-7 11-6 13-9 12-11 8-9 9-14 7-15 5-15 4-27h119v503h-119l-1-297-16 8-19 8-19 6-23 5-25 3h-34l-18-2-24-5-17-5-27-11-13-7-1 297h-119zm1 45 1 3zm1 4 1 4zm1 4 1 2z" fill="#ffffff"/>
<path transform="translate(563)" d="m0 0h120v104l1 173 4 20 5 15 9 17 9 12 14 14 14 10 15 8 17 6 18 3h26l15-3 18-6 15-8 14-10 16-16 7-10 9-17 5-14 3-15 1-8 1-275h119v286l-4 28-5 20-6 18-9 20-9 16-13 19-13 16-13 14-11 9-9 8-16 11-16 9-25 12-24 8-27 6-18 3h-39l-40-8-23-7-21-9-21-11-17-12-10-8-12-11-16-16-11-14-10-14-11-19-8-17-8-22-6-25-3-18-1-12z" fill="#ffffff"/>
<path transform="translate(1126)" d="m0 0h120l1 266 2 20 5 19 7 16 8 13 9 11 7 7 16 12 19 10 15 5 19 3 77 1 52 1 1 1v47l-1 71h-138l-39-8-24-7-24-10-20-11-17-12-13-11-12-11-13-14-13-17-9-13-11-19-10-24-7-23-4-21-2-19-1-21z" fill="#ffffff"/>
<path transform="translate(356)" d="m0 0h119v503h-119l-1-307-1-15-1-159z" fill="#ffffff"/>
<path transform="translate(1673,48)" d="m0 0h7v3l6-2-2 5h5l1 6-3 5-2 3-2 18 7 5 8 4 6 10 6 5 9 5 7 3 6 2 4 5-2 4-4 11-2 11-11 12-9 13-9 19-5 17-2 13-1 71 7-4h2l1 4-3 5-4 5h-2l-1 35 5 2 7 8 7 11 7 8 9 4 6 4 7 6v9l-2 5-2 11-11 12-8 9-9 14-8 16-4 13-3 18-1 11-1 1h-119l-1-158v-34l1-78 1-21 4-24 6-23 8-22 10-21 13-21 13-17 14-15 11-10 4-2 9-5 6-3z" fill="#ffffff"/>
<path transform="translate(919)" d="m0 0h119v286l-4 28-5 20-6 18-9 20-9 16-5 7-14 8-8 5-10 8-10 9-6 4-8 1-3-4v-5l3-9 4-10h2l2-5 1-9 2-3-5-4-2-2h-3l-4-2-3 3-9-2-2-2-2-12v-2l-4-6-6-1-2 3-9 1-1 2-6 3-1-3-7 5-2-1-9 3v-4h-3l-1-5 9-10 10-10 7-10 9-17 5-14 3-15 1-8z" fill="#ffffff"/>
<path transform="translate(1126)" d="m0 0h120v154h-1l-1-21-3 8-8 5-6 8h9v2h-20l-1 3-10-2h-31l2-2-9-5-1-4-7-2-3-1h-3l-1-5h-4l-1 2v-2h-9v-1l5-1-4-5-2-2-3-11-4-2-1-8-1-1-1 125h-1z" fill="#ffffff"/>
<path transform="translate(356,326)" d="m0 0h1l1 111 4-17h2v-7l3-6-5-1v-1l8-2 1-5 3-4 2 2 5-5h5l4-3-3-2 15-1 8-6 8-4 12-2 11-1 10-2 10 2h8l4 3 1-25-2-1h2v-16h1v170h-119z" fill="#ffffff"/>
<path transform="translate(1686,287)" d="m0 0h4v86l1 59 2-1 3 8 1 4 2 1 2 4v8l-5 13-4 22-1 11-1 1h-66l-9-3-13-2-4 2-5-2v2l-4-2-2-2v-6h1l1-7 3-2 2-4 4 2 1-4 4-4 2-5-4-1v-8l6-1 1-4 6-11v-3h2l1-4 5-8 4-3 4-9h2v-2l9-2 3-2 1-2h-3l2-4 4-4 4-9 3-3 3 1 3-10 1-4-1-11v-7h-4l1-4 2-5 1-3v-3h2l2-6-1-5 4-13v-12l1 2h3v-6l4-7z" fill="#ffffff"/>
<path transform="translate(2044,439)" d="m0 0 2 1 1 31v32h-119l-2-16v-18l4-7 8-2h9l13-1 9-3 24-3 20-4 22-6z" fill="#ffffff"/>
<path transform="translate(353,24)" d="m0 0h1l1 157 1 24-3 1-5-3-6-11-6-4-5-10v-10l-6-15-4-5 1-3-6-3-4-8-5-4v-2l-11-3v-4h-2l2-5-2-1 2-5v-2h2l2-5 4-5 5-4 4-5 8-7 7-7 11-16 8-17z" fill="#ffffff"/>
<path transform="translate(0,47)" d="m0 0 2 2 5 16 7 19 12 25 7 13 11 16v2l3 1 8 10 5 6v2l4 2 18 18 12 9 2 1v2l4 2 6 5-1 3-8-1v-2l-10-3-13-6-11-4-5-4-38-2h-14l-4 9-2 2z" fill="#ffffff"/>
<path transform="translate(0,47)" d="m0 0 2 2 5 16 7 19 12 25 7 13 11 16v2l3 1 8 10 4 6-4-1-12-13-8-11-7-9-3-3-2-3v-3l-3-1-11-18-4-5h-5z" fill="#ffffff"/>
<path transform="translate(916,289)" d="m0 0 3 3-2 13-3 11-8 16-10 13 1 2v6l-2 2v6l-6 5-2-1-9 3v-4h-3l-1-5 9-10 10-10 7-10 9-17 5-14z" fill="#ffffff"/>
<path transform="translate(353,24)" d="m0 0h1v166h-1l-2-35v-116h-2l3-12z" fill="#ffffff"/>
<path transform="translate(1673,48)" d="m0 0h7v3l6-2-3 6-10 4-7 3-5 2-15 3-8 7-4 4-2-1 12-12 8-6 9-6 9-4z" fill="#ffffff"/>
<path transform="translate(1698,292)" d="m0 0h2l1 4-3 5-4 5h-2l-1 132h-1l-1-65v-74l4-4z" fill="#ffffff"/>
<path transform="translate(1602,119)" d="m0 0 2 1-5 15-10 25-4 9-6 24-3 3-1-4 6-24 9-25 10-21z" fill="#ffffff"/>
<path transform="translate(1127,31)" d="m0 0h1l1 7v14l3 52 1 14-3-3-1-7-2-3z" fill="#ffffff"/>
<path transform="translate(1930,462)" d="m0 0h4l-3 9v25l1 6h65v1h-69l-2-16v-18z" fill="#ffffff"/>
<path transform="translate(13,173)" d="m0 0 6 1 13 1 5 2 23 2-2 2-38-2h-14l-4 9-2 2v-13l10-2z" fill="#ffffff"/>
<path transform="translate(1204,154)" d="m0 0h32v2h-20l-1 3-10-2h-31l2-2z" fill="#ffffff"/>
<path transform="translate(313,89)" d="m0 0 3 1-8 12h-2l-2 5-7 9-3-1 2-5v-2h2l2-5 4-5 5-4z" fill="#ffffff"/>
<path transform="translate(362,420)" d="m0 0h1v9l-2 18-1 11-2 5h-1v-23z" fill="#ffffff"/>
<path transform="translate(2044,485)" d="m0 0h2v18h-4l-1-5v-9z" fill="#ffffff"/>
<path transform="translate(13,173)" d="m0 0 6 1 13 1 5 2v1h-13l-16-1z" fill="#ffffff"/>
<path transform="translate(1620,92)" d="m0 0v3l-10 16-5 7-2-1 12-19z" fill="#ffffff"/>
<path transform="translate(0,178)" d="m0 0h6l-4 10-2 2z" fill="#ffffff"/>
<path transform="translate(1572,212)" d="m0 0 1 2h3v8l-2 4-2-6z" fill="#ffffff"/>
<path transform="translate(1689,405)" d="m0 0h1v20h-1l-2-13-3-2h4z" fill="#ffffff"/>
</svg>
