<?xml version="1.0" encoding="UTF-8"?>
<svg version="1.1" viewBox="0 0 976 980" width="1280" height="1280" xmlns="http://www.w3.org/2000/svg">
<path transform="translate(439,38)" d="m0 0 13 5 23 12 22 12 41 21 16 9 17 8 19 10 16 8 20 11 16 8 27 14 16 8 23 12 7 6-4 5-10 6-34 16-19 10-26 14-16 8-29 15-35 18-32 17-29 15-14 8-8 5-13 6-5-1-39-20-19-10-28-15-17-9-46-23-19-10-19-9-46-23-21-10-16-9v-4l9-6 24-14 15-9 22-12 26-14 33-17 22-11 22-12 34-18 23-12 14-8 16-8z" fill="#ffffff"/>
<path transform="translate(726,216)" d="m0 0 4 1v68l-1 167v65l1 15v12l-4 5-20 12-54 32-25 14-7 3-7-8-46-69-13-19-23-35-8-12-15-22-14-20-23-34-7-10-3-9v-8l4-6 5-4 33-17 17-10 15-8 22-12 25-14 21-11 22-12 37-19 16-9 24-13z" fill="#ffffff"/>
<path transform="translate(433,383)" d="m0 0 2 2 1 43 1 153 1 121-1 8-2 1-18-10-17-11-22-13-16-9-27-15-23-13-18-10-19-12-13-10-12-11-8-6-7-1-9 1-35-17-19-10-18-10-4-5-1-4 4-8 9-6 29-15 22-12 23-13 24-13 18-10 26-14 22-12 23-12 24-14 19-10 23-12 15-10z" fill="#ffffff"/>
<path transform="translate(150,220)" d="m0 0 6 1 23 11 19 10 23 11 15 8 16 8 38 18 19 10 24 12 23 11 15 7 32 15 8 4 5 6-9 8-16 9-28 15-17 9-12 6-22 12-26 14-23 12-44 24-25 13-15 8-12 4h-8l-6-7-3-10-2-25-1-38v-105l1-76z" fill="#ffffff"/>
<path transform="translate(240,489)" d="m0 0h3v2l-6 4h-2l-2 5-3 1v2h-2l-1 4-2 4-3 2-6 13-1 13 3 8 4 9 8 6v2l6 2v2l9 3 5 1 6-4h2v-2l8-6 5 1 1 4 1 5v2l4 5 12 6 2 4 11 6v2l5 1 15 6 14 5v2l9 2 14 6 20 8 19 8 16 7 7 8 4 4 2 5v2l3 1 4-7h2l1-3 1 52-1 8-2 1-18-10-17-11-22-13-16-9-27-15-23-13-18-10-19-12-13-10-12-11-8-6-7-1-9 1-35-17-19-10-18-10-4-5-1-4 4-8 9-6 29-15 22-12 23-13z" fill="#ffffff"/>
<path transform="translate(742,785)" d="m0 0 7 1 2 4-2 47v96l-1 4-5 2h-20l-2-3-1-9v-64l-1-6-4 1-6 5h-2l-2 4-9 10-7 8-7 7-5-2-18-18-9-12-7-2-3 2-1 77-4 2h-21l-3-5-1-5v-39l1-97 1-6 6 1 6 4 10 9 11 13 8 10 11 13 10 10 6 3 5-2 7-6 20-26 13-15 7-8z" fill="#ffffff"/>
<path transform="translate(278,282)" d="m0 0 6 2 29 15 43 21 15 7 32 15 8 4 5 6-9 8-16 9-28 15-17 9-12 6-22 12-4 1-6-2v2h-2l-2 4-3-1-4 1-7-1-6-4-5-9-2-9-2-22 1-28-4-20-1-4v-20l3-10 5-3h3v-2h2z" fill="#ffffff"/>
<path transform="translate(206,790)" d="m0 0h55l15 2 9 4 8 7 6 9 4 11v23l-4 9-7 10-10 9-4 3 1 6 13 25 10 19 4 8v3l-8 1h-9l-7-1-5-5-7-10-8-16-8-17-5-7-6-3h-9l-4 4-1 11 1 32-2 9-2 2h-13l-8-3-2-11-1-11v-34l1-74v-13zm27 25-4 2-1 4v14l2 18 1 1h31l8-4 5-8 1-3v-9l-4-8-7-6-4-1z" fill="#ffffff"/>
<path transform="translate(814,787)" d="m0 0h27l5 3 6 9 14 25 4 4 2-5 8-13 11-20 4-3h16l11 1 2 1-2 6-9 16-13 21-12 23v6l10 18 14 24 20 34-1 2h-22l-10-1-11-17-10-18-6-10-4-2-8 11-14 25-7 11-7 1h-11l-17-1 8-16 12-19 16-27 7-12 1-3v-7l-9-16-15-25-8-14-5-9v-2z" fill="#ffffff"/>
<path transform="translate(47,790)" d="m0 0h53l12 2 12 5 5 5 6 8 5 12 1 5v15l-3 12-7 11-9 8-11 5-4 1-27 1-10 1-1 2-1 46-2 7-2 2h-9l-10-3-3-3-1-6v-132l3-3zm27 25-6 3-2 4v12l2 16 2 3h32l6-4 4-7 1-11-3-9-7-6-2-1z" fill="#ffffff"/>
<path transform="translate(501,788)" d="m0 0h19l12 3 6 4 1 1-1 10-2 5-2 7-16-3-15-1-7 2-4 2-2 5-2 6 1 8 3 4v2l5 2 13 6 11 5 11 7 9 9 5 8 3 10v12l-3 11-6 10-7 7-12 6-13 3h-16l-18-4-10-5-3-4-1-4v-10l1-8 2-1 19 6 16 3h8l10-4 4-6 1-3v-7l-4-8-8-5-22-9-11-8-6-5-6-10-2-10v-13l3-11 6-10 8-7 12-6z" fill="#ffffff"/>
<path transform="translate(243,271)" d="m0 0 7 2 8-1 20 9v3h-2v2l-7 3-3 10v20l4 18 1 6-1 32 2 18 3 11 4 7 8 4h7 3l3-3h2v-2l6 1v2l-22 12-13 6v-2l-10 1-9-4-5-4v-2h-2v-2h-2l-2-7 1-4-4-18 1-6-1-23 1-6-1-10-2-10-6-19-1-5v-21l3-9 5-3 1-4h3z" fill="#ffffff"/>
<path transform="translate(339,312)" d="m0 0 64 30 8 4 5 6-9 8-16 9-28 15-3 1-10-3-7 1-3-1h-5l-6-4-2-1v-2h-2l-4-8-2-3-3-11v-13l2-10 5-8 1-3z" fill="#ffffff"/>
<path transform="translate(372,788)" d="m0 0 21 1 2 5v138l-2 6-3 1h-19l-3-3-1-5-1-141z" fill="#ffffff"/>
<path transform="translate(301,299)" d="m0 0 11 2 4 2 3-1 19 9 1 2-12 6h-3l-1 5-5 8-1 8v13l4 13 4 6v3h2l2 2 6 4h6l6 1 5-1 8 3-3 3-23 12-6 3 1-3-4 2-3 1-6-2-12-1-4-4-5-3-3-14-1-12 1-14 1-21v-9l2-11 2-9z" fill="#ffffff"/>
<path transform="translate(169,527)" d="m0 0 3 1-4 5v6h2v3l9 3 26 11 9 4 11 4 3 1v2l11 3 7 4 6 2v2l4 2 2 2 6 1 3 7 2 2 3 9 5 6-1 2 3 1 2 4v6l-5-1-14-11-12-11-8-6-7-1-9 1-35-17-19-10-18-10-4-5-1-4 4-8 9-6z" fill="#ffffff"/>
<path transform="translate(384,628)" d="m0 0 9 3 19 8 7 6 6 7 2 5v2l3 1 4-7h2l1-3 1 52-1 8-2 1-18-10-17-11-5-3-2-9-4-15-2-14v-8l1-3-3-8z" fill="#ffffff"/>
<path transform="translate(240,489)" d="m0 0h3v2l-6 4h-2l-2 5-3 1v2h-2l-1 4-2 4-3 2-6 13-1 13 3 8 4 9 8 6v2l6 2v2l9 3 5 1 6-4h2v-2l8-6 5 1 1 4 1 5v2l4 5 12 6 2 4 11 6v2l3 1-6-1-11-5-13-5-18-6v-2l-6-1-9-3-5-3-9-3v-2l-10-2-7-4-9-3-30-13-2-1v-3h-2l-1-7 4-5 4-3 22-11 23-13z" fill="#ffffff"/>
<path transform="translate(219,153)" d="m0 0 3 1v2l7 3 2 11 1 9 4 10v12 4l-7 4h-6l-5 1-31-15-16-9v-4l9-6 24-14z" fill="#ffffff"/>
<path transform="translate(367,326)" d="m0 0 13 5 23 11 8 4 5 6-9 8-16 9-5 2-2-2-6 2-8-1-3-1v-2l-12-2-4-4-4-10-1-1-1-10 2-4 9-1 7-5 4-1z" fill="#ffffff"/>
<path transform="translate(345,612)" d="m0 0 10 3 29 12 4 7 1 5-1 2v8l3 18 4 13v6l-5-2-20-12-1-6-6-8-6-16-3-5-1-11 1-4-1-4-8-5z" fill="#ffffff"/>
<path transform="translate(384,628)" d="m0 0 9 3 5 2 3 7v16l3 13 3 7v3h2l8 10 3 1 3-1 2 7 2-4 10-1 1 2v9l-1 8-2 1-18-10-17-11-5-3-2-9-4-15-2-14v-8l1-3-3-8z" fill="#ffffff"/>
<path transform="translate(148,375)" d="m0 0h1l2 21 1 12 2 9 3 8 4 13 3 15 7 15 3 11 2 4-9 3h-8l-6-7-3-10-2-25z" fill="#ffffff"/>
<path transform="translate(206,508)" d="m0 0h3l-1 11-3 7-4 12 1 9 2 5 5 4 14 7-2 1-10-5-9-3-30-13-2-1v-3h-2l-1-7 4-5 4-3 22-11z" fill="#ffffff"/>
<path transform="translate(362,619)" d="m0 0 5 1 17 7 4 7 1 5-1 2v8l3 18 4 13v6l-5-2-10-6-2-17-6-18v-4l-1-8-1-6-8-5z" fill="#ffffff"/>
<path transform="translate(248,577)" d="m0 0 6 1 4 4 6 1 3 7 2 2 3 9 5 6-1 2 3 1 2 4v6l-5-1-14-11-12-11-8-6-5-2 5-5z" fill="#ffffff"/>
<path transform="translate(266,560)" d="m0 0 5 1 1 4 1 5v2l4 5 12 6 2 4 11 6v2l3 1-6-1-11-5-13-5-18-6v-2l-6-1-9-3-3-3 6 1 5 1 6-4h2v-2z" fill="#ffffff"/>
<path transform="translate(191,516)" d="m0 0h2l-1 6-3 9h-2l-2 5 1 9 6 4 5 2v2l-9-3-18-8v-3h-2l-1-7 4-5 4-3z" fill="#ffffff"/>
<path transform="translate(398,341)" d="m0 0 5 1 8 4 5 6-9 8-3 2-4-1-1-1 1-17h-2z" fill="#ffffff"/>
<path transform="translate(181,521)" d="m0 0h2v3h-2l-2 5-5 10 2 5-6-2v-3h-2l-1-7 4-5 4-3z" fill="#ffffff"/>
<path transform="translate(706,176)" d="m0 0 5 2 4 5-8 7-2-1-1-8z" fill="#ffffff"/>
<path transform="translate(255,573)" d="m0 0 8 3v2l7 2 1 3-11-3-3-1v-2l-6-1z" fill="#ffffff"/>
<path transform="translate(389,361)" d="m0 0h9l2 1-1 3-8 4-4-1 1-4h2z" fill="#ffffff"/>
<path transform="translate(224,498)" d="m0 0 4 1-2 4-5 2-7 2 2-5z" fill="#ffffff"/>
<path transform="translate(289,800)" d="m0 0 5 4 3 5-7-1-2-3z" fill="#ffffff"/>
<path transform="translate(156,551)" d="m0 0 7 4v2l4 1v2l-6-2-7-4v-2z" fill="#ffffff"/>
<path transform="translate(488,391)" d="m0 0 4 4h-2v3l3 1 1 3h-3l-3-7-2 1-1-4z" fill="#ffffff"/>
<path transform="translate(411,347)" d="m0 0 5 5-5 4v-4l1-2-2-1z" fill="#ffffff"/>
</svg>
