<?xml version="1.0" encoding="UTF-8"?>
<svg version="1.1" viewBox="0 0 2048 561" width="1280" height="1280" xmlns="http://www.w3.org/2000/svg">
<path transform="translate(51)" d="m0 0h268l1 2-3 2 10 2 9 4 11 8 10 10 7 11 6 15 1 5 1 18v294h-302l-18-2-16-7-8-6-10-9-10-14-3-12v5l-4-4-1-5v-265l2-2 1 8 5-19 7-11 13-13 8-6 7-3 11-2 1-1-4-2z" fill="#ffffff"/>
<path transform="translate(587,168)" d="m0 0h19l14 3 12 5 10 7 10 9 4-1 7-7 14-8 12-5 9-2 9-1h17l15 3 16 8 11 10 9 14 4 11 2 10 2 33v121h-57l-1-21v-90l-1-22-3-10-6-9-6-4-7-2h-12l-11 4-5 4-6 9-2 5-1 12v124h-58l-1-3v-119l-1-13-4-11-6-7-8-4-4-1h-12l-11 4-8 8-5 9-1 4-1 133h-57v-205h57l1 16 8-7 9-7 13-5z" fill="#ffffff"/>
<path transform="translate(174,57)" d="m0 0 5 3 4 6 6 18 13 54 2 7 12-13 11-14 10-13 11-14 13-16 6-8 5-2 7 3 4 6v6l-7 13-10 16-14 23-15 23-7 12 4 1 33-5 43-6 4 1 3 3 3 4-1 7-8 4-36 10-23 5-12 2 5 5 10 7 19 11 21 13 10 7 7 8 2 8-3 9-7 7-4 2h-10l-12-6-19-13-21-14-10-6-3-1 7 21 4 16 1 6v10l-5 10-6 5-5 2h-13l-8-4-5-7-5-17-3-19v-12l-3 1-9 16-13 28-8 15-7 8-8 4-11 1-9-2-6-4-6-7-4-8-1-9 5-12 12-16 11-13 14-19 4-6-9 2-34 9-25 6h-10l-8-4-6-7-4-9 1-9 5-9 7-5 17-4 47-6 18-3 3-2-20-13-17-12-10-8-4-5-1-9 3-5 5-4 2-1h7l18 10 18 12 17 10 2 2-2-15-10-54-1-7v-11l3-5 5-3z" fill="#ffffff"/>
<path transform="translate(892,167)" d="m0 0h17l19 3 15 5 13 7 10 9 8 9 8 16 3 13 1 10 1 71v67h-53l-2-6-9 2-13 5-14 3-10 1h-12l-18-3-15-6-10-6-11-10-9-14-5-14-1-6v-15l4-15 6-11 9-11 10-8 15-8 14-4 7-1h29l15 3 13 5 4 2v-19l-3-10-4-6-7-6-8-3-6-1h-13l-8 3-7 5-8 10-9 1h-40l-5-1 1-5 7-18 8-12 6-7 10-8 14-8 14-5zm-8 123-10 3-8 5-6 7-2 11 3 9 7 8 7 4 8 2h23l12-4 9-7 4-5 2-4v-9l-5-8-7-6-8-4-9-2z" fill="#ffffff"/>
<path transform="translate(1737,167)" d="m0 0h12l21 3 13 4 14 7 11 9 7 8 8 14 4 11 1 7 1 17v130l-50 1-4-2-2-5-6 1-11 5-17 4-10 1h-12l-14-2-15-5-13-7-10-9-8-10-6-13-3-14v-12l3-15 6-12 8-10 10-9 12-7 14-5 13-2h26l17 3 15 6 2 1-1-19-3-12-7-8-11-5-7-1h-12l-9 3-8 7-6 8-7 1h-34l-13-1 2-9 7-16 7-10 8-9 11-8 16-8 9-3zm-10 123-13 4-8 6-5 10v9l4 8 7 7 9 4 14 2 14-1 12-4 9-7 4-5 2-7-1-7-4-7-7-6-9-4-9-2z" fill="#ffffff"/>
<path transform="translate(1209,168)" d="m0 0h22l15 3 11 5 11 7 8 8 8 13 5 11 3 17 1 145-1 1-56 1-1-1-1-128-2-10-4-8-7-7-10-4h-19l-10 4-8 7-6 8-3 9-1 129h-57v-205h57v17l5-3 11-9 12-6 10-3z" fill="#ffffff"/>
<path transform="translate(1830,173)" d="m0 0h60l4 9 12 36 19 55 6 18 4 15h2l5-12 15-43 19-55 7-22 1-1h57l-2 9-11 29-19 50-18 47-14 37-21 55-14 37-5 14-2 2-11 1h-34l-12-1 9-20 12-31 7-17 1-8-6-16-11-30-14-36-15-40-18-46-12-31z" fill="#ffffff"/>
<path transform="translate(1384,168)" d="m0 0h24l18 3 12 4 15 8 12 11 7 9 12 24v3l-13 1h-41l-5-5-7-8-8-4-10-2h-10l-10 3-6 4-4 7v8l4 6 7 4 56 14 15 6 10 6 10 9 7 10 4 11 1 5v23l-4 12-5 10-11 12-9 7-17 8-15 4-14 2h-21l-18-3-16-5-17-9-12-11-7-10-6-12-4-13v-3h56l4 5 6 8 7 5 10 3h19l8-3 7-6 3-6-1-9-6-7-16-5-43-10-17-6-13-8-10-10-6-12-3-11v-17l3-14 7-14 11-12 11-8 15-7 16-4z" fill="#ffffff"/>
<path transform="translate(1528,116)" d="m0 0h56l1 1v56h45l1 1-1 44h-45l1 99 2 5 8 7 7 2h12l11-3 7-3v51l-2 2-15 3-8 1h-24l-18-4-14-7-10-9-6-10-6-14-2-15-1-104h-31v-46h32z" fill="#ffffff"/>
<path transform="translate(1015,173)" d="m0 0h57l1 1v203l-1 1h-57z" fill="#ffffff"/>
<path transform="translate(1035,81)" d="m0 0h17l10 4 9 8 5 10 1 4v14l-5 10-8 8-12 6-3 1h-12l-10-4-8-6-6-7-4-11v-10l4-11 9-10 9-5z" fill="#ffffff"/>
<path transform="translate(644,482)" d="m0 0 6 1 10 5 9-3 4-3 8 1 9 4 4 4 1 22v26l-1 1h-8l-1-4-1-34-2-7-5-2h-7l-4 4-2 5-1 37h-10l-1-40-2-4-4-2h-7l-5 5-2 6v35h-11v-54l3-1 10 1 8-1z" fill="#ffffff"/>
<path transform="translate(1053,481)" d="m0 0 6 2 7 4 4 4 7-6 7-3 7 1 8 5 4 6 1 5v40h-10l-1-39-3-5-5-3-7 2-3 4-1 3-1 38h-10l-1-38-4-6-4-2h-7l-5 6-1 27-1 13h-9v-56l8 2 12 1z" fill="#ffffff"/>
<path transform="translate(1231,462)" d="m0 0 9 1 1 1-1 76h-9l-1-8v-28h-41l-1 36h-8l-1-1-1-12v-64h10v32h42v-32z" fill="#ffffff"/>
<path transform="translate(1007,459)" d="m0 0h10v80h-8l-10-3-1 4h-13l-8-4-7-10-3-9v-12l3-9 8-9 8-4 6-1 5 3 9 1zm-18 34-7 4-4 6-1 3v11l4 9 6 4 3 1h7l8-4 2-4v-23l-5-6-2-1z" fill="#ffffff"/>
<path transform="translate(1314,458)" d="m0 0 8 1v29l12-5h8l9 4 6 5 5 11 1 5v8l-3 10-6 9-7 4-4 1h-9l-8-2-5 1h-7l-1-5v-75zm17 35-7 6-2 6v15l3 7 6 4h11l8-7 2-5v-16l-5-7-5-3z" fill="#ffffff"/>
<path transform="translate(929,461)" d="m0 0 4 1 4 7 11 27 12 32 4 9v2h-9l-4-4-5-16h-32l-6 14-3 6-8 1-1-2 10-28 9-24 8-18 4-6zm-1 16-10 28-1 5 9-1v-1h7l-1 2 2 1h7l-1-8-7-20-4-6z" fill="#ffffff"/>
<path transform="translate(722,483)" d="m0 0h12l9 4 5 6 3 9v9l-1 2h-36l3 11 4 5 6 3 7-1 6-4 8-10h2v7l-3 8-4 5-9 4h-11l-7-3-7-7-5-10v-16l5-12 5-6zm4 7-6 3-4 5-1 6 3 2h22l1-1-1-9-6-5z" fill="#ffffff"/>
<path transform="translate(546,483)" d="m0 0 11 1 8 4 6 7 4 13v8l-3 10-4 6-7 6-10 3-10-1-9-6-4-5-4-9v-15l5-12 7-7 4-2zm-1 9-5 3-4 5-2 8v8l2 8 8 7 7 1 8-4 4-6 1-3v-14l-4-8-5-4-2-1z" fill="#ffffff"/>
<path transform="translate(1254,484)" d="m0 0h8l2 1 1 37 2 6 4 2h10l6-2 1-8 1-36h10v53l-1 2h-15l-4 1h-12l-7-4-4-6-2-13z" fill="#ffffff"/>
<path transform="translate(820,483)" d="m0 0 6 1 5 10 10 25 3 4 11-31 5-8 2-1h6l-2 9-15 39-8 21-3 9h-10l5-19v-7l-8-22-7-19-1-9z" fill="#ffffff"/>
<path transform="translate(515,456)" d="m0 0h5l3 4-4 1-1 2 7 1 1 4-7-1-7 4-3 4v5l1 3 7 1 3 2-1 7-6 3h-4l1 23v20l-6 1-6-1-1-5v-24l1-15-9-2v-5l4-3h4v-8l4-11 5-5 6-4z" fill="#ffffff"/>
<path transform="translate(1142,471)" d="m0 0h12l1 5v9h8l1 1v8l-11 1 1 33 9 3 1 4 1 5-1 1h-9l-7-3-4-5-1-3-1-36-12-2 1-2h2v-3l9-2-1-13z" fill="#ffffff"/>
<path transform="translate(805,458)" d="m0 0 3 1 1 26v45l-1 9-2 1h-6l-1-1v-80z" fill="#ffffff"/>
<path transform="translate(786,483)" d="m0 0h5v8l-7 2-9 3-2 2-1 5-1 36-9 1-1-1v-54z" fill="#ffffff"/>
<path transform="translate(606,482)" d="m0 0h5v11l-14 2-1 1-1 13-1 30-1 1h-8l-1-1 1-55 18 1z" fill="#ffffff"/>
<path transform="translate(1116,485)" d="m0 0 9 1 2 2v51h-10l-1-3z" fill="#ffffff"/>
<path transform="translate(1116,462)" d="m0 0 12 1 1 3-3 5-3 1h-7l-1-9z" fill="#ffffff"/>
<path transform="translate(1164,531)" d="m0 0h6l-3 3h-2z" fill="#ffffff"/>
<path transform="translate(49,2)" d="m0 0h3v2h-5z" fill="#ffffff"/>
<path transform="translate(936,509)" d="m0 0" fill="#ffffff"/>
<path transform="translate(0,49)" d="m0 0" fill="#ffffff"/>
</svg>
