<?xml version="1.0" encoding="UTF-8"?>
<svg version="1.1" viewBox="0 0 2048 2048" width="1280" height="1280" xmlns="http://www.w3.org/2000/svg">
<path transform="translate(0)" d="m0 0h2048v1711h-176l-94 1-2 26-1 16v19l65 2 2 3 1 17v51l-1 202h-753l-1-19-1-56v-184l1-13 2-1 37-1 19-1 5-1v-40l-1-20-23-1h-1127zm723 66-637 2-9 2-5 5-3 5-1 6-1 127v58l1 1h1493l250 1h93l64-1 9-1 1-1v-167l-1-19-3-9-5-6-7-1-23-1-244-1zm-473 284-182 1-1 1157v123l32 1h987l30-1 2-1-2-5-10-13-8-11-8-16-7-24-10-25-9-27-7-16-5-15-7-16-8-24-5-14-7-18-6-21-8-20-9-27-10-24-6-16-6-14-12-34-5-13-3-15v-11l1-13 5-13 8-16 7-13 13-15 7-7 14-10 15-5 17-4 15-8 8 1 5 3 4 4 19 2 12 4 10 6 14 12 8 8 11 14 8 10 15 24 18 27 10 18 14 19 11 10h1v-12l-1-13-1-223v-177l1-31 2-24 3-12 7-11 13-16 9-9 14-11 8-6 10-4 15-2h33l20 3 14 5 19 10 11 8 7 7 8 13 11 21 3 9 2 23v247l1 22 6 2 25 5 5 3 4 3 54 3 114 4 15 2 10 5 10 2 24 3 18 3 15 4 26 13 13 9 7 7 8 7 10 10 9 11 8 11 15 29 3 13 2 15 1 15 1 74v91l-1 107-2 77v17l3 1h127l9-1 1-1v-1278l-1-1-40-1zm1074 434-8 3-10 9-6 7-3 8-1 34-1 448-2 26-5 8-7 8-5 5-9 8-5 5-8 4-17 1h-24l-10-3-9-6-15-14-10-12-13-18-11-19-10-15-11-17-10-19-6-11-10-19-10-15-8-7-9-2-16 1-8 4-6 7-3 8v20l4 16 8 19 9 29 8 19 6 20 8 20 6 14 7 17 6 16 6 19 5 13 5 14 7 22 8 21 7 22 6 16 11 26 11 22 8 17 10 19 16 32 11 24 8 30 3 5 5 7 2 7 2 67 6 1h445l10-2 4-6 5-19 6-16 3-15 3-22 4-13 13-25 8-11 10-12 8-12 4-14 3-16 4-8 5-6 1-4 1-16v-276l-2-11-9-20-8-16-10-13-13-13-14-9-20-8-12-6-9-2-16-1-65-2-45-2-2-4-4-2-32-3-69-4-49-3-7-3-8-8-8-7-9-10-2-4-1-68v-251l-3-9-9-10-7-6-7-3zm117 1057-274 1v137h606l1-7v-129l-1-1-191-1z" fill="#378C92"/>
<path transform="translate(318,477)" d="m0 0h275l25 1 3 2 1 3 1 23 1 6 9-3 6-4 8-10 7-3h9l9 6 12 15 7 9 10 8 3 5-1 6-8 9-11 9-7 7-11 9-13 12-10 8-12 11-7 6-1 244-1 20-3 5-10 10-4 2-6 1-71 1h-320l-2-1-1-5-1-21v-389l1-1zm-46 68v270l8 1h251l11-1 2-5v-63l1-59-1-4-5 2-8 6-8 8-11 9-11 11-11 9-10 7-13 10-12 9-11 9-12 11-11 11-7 8-6 5-5-1-11-13-7-8-9-10-6-5-2-3h-2l-2-4-8-7-20-20-8-7-22-22-7-8-9-10-3-7v-6l5-9 13-12 15-16 5-6 7 1 8 7 8 8 7 8 20 20 7 6 7 8 7 7 5 7 6 5 4-2 8-7 5-6 8-7 13-12 14-14 11-9 20-14 12-9 13-11 8-7 12-11 5-4 4-6v-38z" fill="#378C92"/>
<path transform="translate(206,1023)" d="m0 0h409l6 2 2 3v23l1 6 7-3 6-4 9-10 5-2h10l10 5 11 13 9 11 5 4 6 8 3 7v7l-5 5-14 8-14 11-14 10-28 24-6 5-1 239-1 24-4 8-9 8-6 2-11 1-99 1h-284l-3-2-1-3-1-24v-381zm328 67-262 1-1 124 1 144 11 1h247l12-1 1-1 1-85v-45l-4 1-8 6-12 12-8 7-17 17-8 7-13 11-10 7-13 10-10 7-11 9-17 17-4 3h-6l-10-11-7-8-12-13-23-23h-2l-1-3-8-7-13-13-8-7-10-10-7-8-7-7-6-8-3-9 6-12 13-12 8-8 9-11 3-3 6 1 6 4 7 8 11 13 8 7 31 31 8 10h2v2l5 2 7-6 6-7v-2l4-2 14-13 11-9 10-8 13-9 13-10 14-12 13-12 8-7 9-9 7-6 6-7 1-30-1-7-1-1z" fill="#378C92"/>
<path transform="translate(1027,607)" d="m0 0h734l77 1 3 3 1 3v70l-1 1-7 1-69 1h-740l-2-3v-63l1-12z" fill="#378C92"/>
<path transform="translate(596,491)" d="m0 0 6 4 1 4 2 1-1 4 5 2 7 9h2v2h2l1 3h4l1-5v-3l12-6 9-11 7-3h9l9 6 12 15 7 9 10 8 3 5-1 6-8 9-11 9-7 7-11 9-13 12-10 8-12 11-7 6-1 244h-1l-1-65-1 1v11h-2v3h-2l-1-20-1 3 1 9-1 5-5-2-2-1-7 7-6 1-5 3-3-1 1-2-8 1-6 7-5 5-3 6-12 10-5 2h-3v2l-5 1-1-1-9 1-2 1h-10l-1-2 4-2-3-2 9-2 3 1 8-2 6-2 1-2-3-1-9 1-18 1h-32l-26-2-35-6-2-1 1-3 7-1 23-1h73l19-1v-69l1-63-11 7-10 10-11 9-11 11-11 9-10 7-13 10-12 9-11 9-12 11-10 10-7 8-7 6-5-1-12-14-7-8-8-9-3-2v-2l-4-2-5-6-8-7-20-20-8-7-23-23-7-8-9-10-3-7v-6l5-9 15-14 12-13 7-8 7 1 8 7 9 9 7 8 19 19 8 7 7 8 7 7 4 5v2l3 1 3 3 4-2 7-6 6-7 8-7 13-12 14-14 11-9 20-14 12-9 13-11 8-7 12-11 5-5 3-4 1-13 3-1 4 5 6-11-1-7 2-1 1-7 2-11h-4l-4-9-5-1-8 1-13-5-9-3-3-5 6-3 11-3 3 1v2h7v-2l5-1 1-3 13-5 16-2-4-2 7-2 8-1 2-2z" fill="#378C92"/>
<path transform="translate(206,1023)" d="m0 0h409l5 1-4 2-11 1h-39v2l7-1-2 2-9 3h11l2 1 14 1-3 1-2 4-10 1-14 6-5-1v-2l-11 3 1 4v4l-5-1v5l-2 1v2l2 1-3 1 4 3v2l3 1 1 4h2l3 12-4 5h-274v268h11v2l-7 2h-10l-1-1-1-7-1-47-1-26v-68l1-20 1-59 1-20-2 8-1 27v36l-2 37v20l3 86v17l-2 12v6l4 3 1 3 9 3-1 4h6l1 3h5l5 2-4 5 7 2 1 3-15 1 2 5-4-1 1 4 13 2 9 2h6v2l-4 1v5l5 1v2l12-2 3 7 3-3 4 2-3 3-17 4-5 1h23l9 1-4 2h20l11-1h8l7-1h24l2-1h3 25v1l-10 1-1 2-4 1h16l13 1 9-1 13 1h12l7-1 1-1h-3-2v-2l-16-2-4-2h35l5 1v-2h7l8 1 17 1h7l8 2 1-1 15-2h13l1-3 2-1h6l2-5 6-2 3-4h7l-2 5-6 4 3 2-3 2 1 4 11 2 1 3-9 4-11 1-99 1h-284l-3-2-1-3-1-24v-381z" fill="#378C92"/>
<path transform="translate(1231,477)" d="m0 0h604l6 2 1 3v62l-1 1h-609l-4-4-1-5v-31l1-21 2-6z" fill="#378C92"/>
<path transform="translate(1705,1769)" d="m0 0h2v6h3v7l-2 8 3 2 3 10 5 10v3l9 3 6 3 5 1v1l15 1 9 3v2l2 1v2h8l3 3h-25v1l-38 1-136 1h-303l-77-1v-1l18-1 12-3 15-2 11-3v-1l13-4 5-4h3l-2-5v-6l-4-2-4-6 3-2-7-6 1-4h7l-2-2h-14l-4 1 3 5 2 2h-4v2h-3l-3-3h-4v-5l-3-1 1-2 11-1 4-1v-2l-8 1-11-1v-3h46l242 2h155l11-1 8 1 7-3 2-3h2z" fill="#378C92"/>
<path transform="translate(1524,783)" d="m0 0h311l6 2 1 4v60l-1 12-2 1-201 1h-130l-6-2-1-6v-67l2-4z" fill="#378C92"/>
<path transform="translate(1504,911)" d="m0 0h168l167 1 2 3 1 5v68l-4 2-79 1h-256l-2-3-1-20v-25l1-26 1-5z" fill="#378C92"/>
<path transform="translate(1828,44)" d="m0 0h39l10 1 21 1 19 2 15 3 7 2v3l-2 1 4 1v2h-35l-97 1-232 1-778-1v-1l39-1-20-1-19 1-6-1-4 1h-9l-4-2-60-1 1-2-7-1 2-2h31l26-1 17-2h11l10-1 22-1 51-1h36l6 2 126 1v1l-66 1v1h-13v-2l-4 2-23 1h103l102-1h51l99-1h238l93-1h36l47-1 7-1 55-2h23z" fill="#378C92"/>
<path transform="translate(1025,783)" d="m0 0h136l6 2v27l-2 27-2 10-5 8-4 3-5 1-14 1-72 1h-36l-3-1-1-3v-55l1-19z" fill="#378C92"/>
<path transform="translate(1025,911)" d="m0 0h36l84 2 8 2 8 7 3 5 2 15 1 46-2 2-21 1h-118l-2-1-1-6v-64l1-8z" fill="#378C92"/>
<path transform="translate(1572,61)" d="m0 0h386l14 2 8 3 4 4 1 3 1 37v76l-1 81-1 7-1 1h-6l-6-3v-1l6-1v-167l-1-19-3-9-4-5-7-1-23-1-244-1h-972l-637 2-11 2-2 4-3 5-1 6-1 127-1 58-3-1-1-10-1-87v-79l1-17 3-5 4-3 5-2 16-2 52-2 137-1h842z" fill="#378C92"/>
<path transform="translate(62,349)" d="m0 0 8 1-2 1v1157l-1 123h6v1h-9l-1-2-2-30-2-162v-934l1-114 1-40z" fill="#378C92"/>
<path transform="translate(219)" d="m0 0h785v2l-3 1h-12l-5-1-3 2-21 1-48 1-6 1-1-3h-8v2l-4 1h-4l-9-1h-2-10v-2l-9 2h-9l-8 2h-14v-2l-24 1-29 1-5 1h-10l-5 1h-7l-6 3-5 2v-2h-2l-1-2h-5l-1 6-6 3v-2l-3 1h-13l-4 1-3-5v-2l-6 6h-8l2-2-7-1-4 2h-10l-8-1-4-3-2 4-9 1-5 1-5-1-8 3h-10-4l-9-1-2 2-10 1-3-1-6 1-15 1-4-3-3-1v2h-14l-2 1h-9l-9-1-14 1-7-2h-17l-7-1-14 1h-10l-5-2-7 1-10-1-1-1-22-2-12-1-4 1-2-1-17-1h-6l-1-1-9-2-7-1-12-1-1-1-28-1-9-2h-19l-8-1h-12l-5-1h-20l-5-1h-12z" fill="#378C92"/>
<path transform="translate(1027,477)" d="m0 0h79l56 1 5 2v40l-1 22-3 2-15 1h-121l-3-3-1-4v-39l1-18z" fill="#378C92"/>
<path transform="translate(1828,334)" d="m0 0h11l8 1 36 1 24 3 15 2 3 2 1 1 6 1v3h-984v-1l11-2 10-1 54-2h11l5-1h17l7-1h223l184-1h75l4-1 4 1 13-1h16 3 3 64l4 1 1-2h46l22-1h37l26-1h19z" fill="#378C92"/>
<path transform="translate(1442,1089)" d="m0 0 16 2v2h15l6 5 54 3 114 4 15 2 10 5 10 2 24 3 18 3 15 4 26 13 13 9 7 7 8 7 11 11 9 11 8 11 15 29 3 13 2 15 1 15 1 74v91l-1 107-1 41-1 15-2 3-1 32-2 2-1-3-1-17v-105l-1-111v-60l-1-44-1-13v-7h-3l-3-8-4-8-1-8v-1l-2-14-5-13-3-6v-2l-2-1-5-9-5-10 1 3 4 10-1 2-2-2v-5h-2l-2-6-3-1-1-5 1-4-4-5-8-8-5-6-2-2-5-3v-3l-5-2-15-7-32-16-7-3-9-3-32-5h-19l-2-1-16-2-17-2-21-3-15-2-24-2-43-2-10-1-1-1-33-4-17-4-9-4z" fill="#378C92"/>
<path transform="translate(1751,1835)" d="m0 0h18l9 2 1 40v24l-1 83-6 2-22 1h-585l-1-2 1-12 2-1v7h606v-136l-191-1h-415l2-3 9-1h66l469-2z" fill="#378C92"/>
<path transform="translate(1052,1696)" d="m0 0 29 2h10l9 1h18l13 2 4 3h-17l-7 1-12 1-23 1h-512l-510 1-38 1h-16v-8l37-2h13l2-1 5 1h115l9 1h200l4 1 20-1h4l9 1h13l7-1 3 1 8-1 4 1 8-1v2l3-1h38l4-1 10 1h22v2l8-2 9 1h3 17 4l7-1 4 1h17l2-1h6v2l7-2v2l7-1 1-1h7 1 6v2l6-2 5 1 1-1h7l5 1h12l4 1 1-2h28l8 2 1-2 8 1 1-2 4 1v2l6-2 6 1 8-1 1 1 11-1h23l55-1h61l9-1h43l40-1 4-1h17z" fill="#378C92"/>
<path transform="translate(1383,608)" d="m0 0h259l153 1h45l2 5v70l-3 1h-436v-1l10-2 17-2 42-1 31-1 10-2 32-1h44l25-1h27l22-1 67-1h19l31 1 3 2 4-1h10l7 1 12-1 18 1 6 1v-50l-2-3h-6l-6-2-19-2-24-1-18-1-2 1-45-2-27-1h-91l-33 1-6-1-2 1h-27l-6-1h-95l-10-1h-13l-27-1-9-1v-2z" fill="#378C92"/>
<path transform="translate(1800,1777)" d="m0 0h31l4 1 1 11v18l-1 53 1 188h-8v-3h2l2-8-1-10-1-4-2 1-5-11-2-3-6-26-2-14h2l-1-12-1-3v-16l2-19-1-3v-7l3-11 1-8v-15l-4-16-4-17-8-22-10-9-7-5 1-3-4-2-7-6-4-2-3-6v-2h-2v-7l2-1z" fill="#378C92"/>
<path transform="translate(1761,1242)" d="m0 0 4 5 5 8 6 5 2 6 2 25 1 32v131l-1 113-1 9 1 10 2 5v5l-2 5-3 9-2 8-2 4 1 4-6 10-5 6-4 4h-2v2h-4l-2-2-1 5 2-1-1 4-1 3h-2v7h-2l-2 7-3 4-4 8h-2l-2 5-2 6-6 5-1 2-3 1-1 4-4 10-3 2-2-1-3 19-7 26-6 11h-2v2l-3 1-13 1-11 2h-266l-121-1-46-1-1-3h450l10-2 3-5 5-19 6-16 3-15 3-22 4-13 13-25 8-11 10-12 8-12 4-14 3-16 4-8 5-6 1-4 1-16v-276l-2-11-9-20-2-6z" fill="#378C92"/>
<path transform="translate(148,129)" d="m0 0h56l3 2v68l-2 6-3 1-29 1h-39l-5-2-2-13v-16l2-23 3-10 6-8 5-4z" fill="#378C92"/>
<path transform="translate(60,350)" d="m0 0h1v40l-1 114v934l2 162 1 19v11l-2-2v-5h-2v-3h-2l-2-10v-7h1l1-26v-99l-1-16-1-24h-3l-1-9v-28l1-68v-17-4-2h2l-2-4 2-4h1l1 7v-184l-1 1h-1l-1-11v-12l-1-1v-30l1-8 1-24v-53l-1-2 1-4-1-25v-62l-1-1v-24l-1-80-1-38 1-9-1-3 2-3 1 1 2-10-2 6-3-2v-7l2-6 2 4 1-22v-33l-3 1-1-3v-16l2-3 1 4v-20l-1-7v-11l-2-2 1-6-1-8v-32l1-25 2-15 2-29 1-69 2-59z" fill="#378C92"/>
<path transform="translate(423,129)" d="m0 0h50l6 3v71l-5 3h-49l-12-3-6-5-7-14-1-7v-9l2-15 5-13 7-8 4-2z" fill="#378C92"/>
<path transform="translate(277,128)" d="m0 0h26l19 1 12 3 10 7 5 6 2 9v20l-2 11-5 10-8 8-9 3h-48l-7-3v-64l2-8z" fill="#378C92"/>
<path transform="translate(1983,372)" d="m0 0h1l1 30 1 101v336l1 793-1 2h-5v-316l1-125v-133l-1-182v-365l1-85v-50z" fill="#378C92"/>
<path transform="translate(1180,1986)" d="m0 0h97l473 1v1l-9 1h19v3h-5v2h-5l-2-2-4 1-9 3-4 1-8 1h-11l-6 1h-30l-7 1h-28l-11-1-1-1h-8l-6-1h-18l-3 1h-10l-3-2-11-1-1 2h-17l-4-2-3 1h-7l-1-1h-7l-10 1-1-1-9 1-9-1-2 1-44 1h-64l-15 1h-19l-4-1-47-2-11-1v-2h-5v-1l-17-1h-30v1h-31l-2-2v2l-7-1-5 1h-33l-1-4z" fill="#378C92"/>
<path transform="translate(1237,852)" d="m0 0 2 4 3 17 1 1v7l1 1 1 9 1 4 1 14 1 10v30l-1 21 1 12 3 4 2 6 2 13 2 9 1 1 1-4 1 18-1 24v9l-2 8v7l1 6-2 12-3 16-1 16-1 8h-2l-1 11-2 6h-2l1 12 1 27 1 4 1 9 2 13 1 16v17l-2 14-3 9-9-1v-45l2-51 1-13v-44l-1-11v-28l-1-41v-52l-1-95z" fill="#378C92"/>
<path transform="translate(1980,350)" d="m0 0 3 1 1 3v13l-1 11v50l-1 85v365l1 182v133l-1 125v315l-13-1v-1l9-1v-1279z" fill="#378C92"/>
<path transform="translate(1044,1242)" d="m0 0 2 2 6 15 8 26 8 19 6 20 8 20 6 14 7 17 6 16 6 19 5 13 5 14 7 22 8 21 7 22 6 16 11 26 11 22 8 17 10 19 16 32 11 24 8 30 3 5 5 7 2 7 1 41v16h-1l-3-13-2-3-2-1v2l-2 1-1 2-2-5-3-14-6-24-3-9-2-15-10-30-5-10-10-24-2-5 3-1-1-5-4-10-8-16-6-15-4-9-6-14-3-6-4-10-4-7-4-8-4-9-1-6-3-7-3-12-5-12-2-3-2-9-3-6-3-12-14-42-5-12-9-26-3-7-10-25-6-16-3-10-3-8-3-10-8-24-2-7z" fill="#378C92"/>
<path transform="translate(1984,267)" d="m0 0 2 4v10l-4 3-7 1h-13l-28 1h-8l-7 2h-35l-36-1-22-1h-14l-60-3-23-1h-25l-7-1-6 1-12-1h-24l-16-1h-38l-33-1h-14l-11-1h-27l-6-1-23-1-1-2 12-1h142l343 1z" fill="#378C92"/>
<path transform="translate(1543,784)" d="m0 0h125l24 1h149l1 4v60l-1 11h-172l2-1v-2l12-2 2-1 19-2 25-1 20-1 6-1h27l7-1 2-1 6 1 8-2 13-1h3l9-4 1-7 2-5-1-21-3-3 2 4v8l-5-2-1 5-2-1-1-5h-4l-4-6-4-5-8-4-7-2-15-2-71-4-7-1h-24l-19-1-33-1-3-2-80-1z" fill="#378C92"/>
<path transform="translate(1310,717)" d="m0 0h33v1l-30 1-2 2h-4l-4 4-10 5h-2v2l-8 4v2l-5 3-5 5-8 6-3 3h-2l-5 6-9 12-1 3-2 1-4 7-2 2-1 17-2 15h-1l-1 63 1 27v24l1 12 1 30 1 87v197l-2 14h-2l-1 2-1-3-2 2-7-8-3-4 1-2 10 9v-11l-1-13-1-223v-177l1-31 2-24 3-12 7-11 13-16 10-10 14-11 8-6 10-4z" fill="#378C92"/>
<path transform="translate(1118,1703)" d="m0 0h11l13 1 4 4 6 3 1 6 1 36v20l-2-2-1-39-1-20-23-1h-1127v-2l16-1 38-1 544-1h478l28-1 9-1z" fill="#378C92"/>
<path transform="translate(318,477)" d="m0 0h275l14 1v1l-24 2-79 2h-292l-4 4-1 6 1 4 1 36 1 95v71l-1 58-1 33-1 17-1 1-1 60h-1v-389l1-1z" fill="#378C92"/>
<path transform="translate(1572,61)" d="m0 0h386l14 2 8 3 4 4 1 3 1 37v76l-1 81-1 7-1 1h-6l-6-3v-1l6-1v-198l-1-3-6-2-9-1-34-1-738-1-45-1v-1z" fill="#378C92"/>
<path transform="translate(1887,1691)" d="m0 0h12l3 1 8 1 8-1 23 1 16 1 24 1 5 1h16l36 2h10v13h-264l1-3h10v-2l9-2 12-2 1-1 26-2 3-2 21-2h9v-2h3v-1h7z" fill="#378C92"/>
<path transform="translate(1812,1182)" d="m0 0 5 5 8 14 11 21 3 13 2 15 1 15 1 74v91l-1 107-1 41-1 15-2 3-1 32-2 2-1-3-1-17v-105l-1-111v-61l1-63 2-23v-13l-13-32-7-13-3-4z" fill="#378C92"/>
<path transform="translate(299,652)" d="m0 0 7 1 8 4 10 4 14 9v3l4 3 5 1 1 2-2 1 1 2-8-4-2 1-6-1 11 11 4-1 6 13h2l1-4-2-5-4-3 2-7 4 2h4l3 3 1 11 1 3-3-1v2 6l-3 1-1-4-5-2-1 6h6v2h-4l1 5v9l4 9v8l3 3v3h2l4 9-5-2-26-26-8-7-23-23-7-8-9-10-3-7v-6l5-9z" fill="#378C92"/>
<path transform="translate(1831,1325)" d="m0 0h1l1 11v65l1 104v68l-2 18v31h-3l-4-7-1-10 1-2-2-1-2-12-2-6 1-13 2-8v-16l-3-7v-43l-3-12v-15l-1-12v-11h1v-22l2-26 2-5h3l2 5-1-4v-15l4-19h1l1 5v-38z" fill="#378C92"/>
<path transform="translate(1127,1774)" d="m0 0h14v1l-10 1-23 1 7 4-2 1-2-1 1 4h-3v3l-6 2-1 7-4 2v2h2l1 11 1 1v-3l4 2h-2l-1 6-2 6-4 30v54l1 6-1 10v9l1 8 1 25v6l1 6-1 6 2 10 1 11 1 21-2 9v9l-1 4h-11l-1-19-1-56v-184l1-13 2-1z" fill="#378C92"/>
<path transform="translate(1383,608)" d="m0 0h259l153 1h45l2 5v20h-1l-1-8-2-3h-6l-6-2-19-2-24-1-18-1-2 1-45-2-27-1h-91l-33 1-6-1-2 1h-27l-6-1h-95l-10-1h-13l-27-1-9-1v-2z" fill="#378C92"/>
<path transform="translate(1152,1834)" d="m0 0 3 1-4 5-1 9 2-2 3-8 4-4 7 1 1 5v131l-1 1-1 14h-2v-2l-5-1v-12l-1-3-2 1-2-8-3-17-1-10-2-7h-2l-3-9-3-15 1-18-1-12 1-3 2-2 4-19 2-12z" fill="#378C92"/>
<path transform="translate(1231,477)" d="m0 0h604l6 2 1 3v10l-4-3-2-4-3-1-12-1h-71l-167-1h-352l-2 1 1-5z" fill="#378C92"/>
<path transform="translate(1289,821)" d="m0 0h1l1 12v155l1 286-2 2-1-9-1-2v-45l-1 35h-1l-1-17-1-26v-15l-1-9-1-5v-9l-1-9-2-56-1-8 1-21v-24l1-1v-21l1-27v-84l2 3v21l2 95 1 55 1 24v-22l-1-59v-137l1-69 1-12z" fill="#378C92"/>
<path transform="translate(1307,790)" d="m0 0h5l-6 7-5 6-3 8-1 34-1 448-1 7h-1l-1-8-2-28-1-276v-114l1-54 1-19 3-5 6-4z" fill="#378C92"/>
<path transform="translate(1927,341)" d="m0 0 20 2 17 3 6 2 1-2v2h8l3 2-2 1-1065-1v-1l83-2h867l67 1v-3l-3 1-7-2 3-2z" fill="#378C92"/>
<path transform="translate(1751,1835)" d="m0 0h18l5 2v5h-607l2-3 9-1h66l469-2z" fill="#378C92"/>
<path transform="translate(1837,912)" d="m0 0 3 1 2 7v68l-2 1-15-1h-254l-2-2 4-2 33-2 14-1 27-1h133l8-1 20 1 12-1 13 1 4-9 2 1v-45l-2-4-1 1h-6l-7-2-17 1-16-2v-2l-9 1v-2h-14l-6-2 3-2h68z" fill="#378C92"/>
<path transform="translate(303,1197)" d="m0 0 5 2 1 3 3 1 7 8 10 9 4 5v2h2l3 3 4 3 3-1 5 11-2 4-3-4-3-1v9l3 1 2 7 3 11-1 2-4-2-1 2-10-5-7-5-7-3-12-12-7-8-7-7-6-8-3-9 5-10 8-6z" fill="#378C92"/>
<path transform="translate(1761,1242)" d="m0 0 4 5 5 8 6 5 2 6 2 25 1 32v131l-1 72-1 36-2 14-4 9-7 16-6 15-3 3 2-11 3-16 4-8 5-6 1-4 1-16v-276l-2-11-9-20-2-6z" fill="#378C92"/>
<path transform="translate(1773,1758)" d="m0 0h1l1 15 65 2 2 3 1 17v51l-1 202h-6l-1-2-1-196 1-43v-29h-62l-3-1 1-11z" fill="#378C92"/>
<path transform="translate(1360,720)" d="m0 0 10 2 21 10 11 7 10 9 7 9 12 23 3 5-1 3-1 4-2 2 1 8 4 13 1 11v11l-1 7-3 7-3-1-2-6-3-18-6-16-2-5-3-1-6-12-3-3-2-7h2l-2-4h-3l-2-3 1-3 1 1-1-9h2l3 4-5-8-4-4-1-6 3-4 3 1v2l4-1-17-12-13-8-9-5z" fill="#378C92"/>
<path transform="translate(1739,1644)" d="m0 0 1 2-6 11-12 23-6 14-3 11-5 31-7 26-6 11h-2v2l-3 1-13 1-11 2h-266l-121-1-46-1-1-3h450l10-2 3-5 5-19 6-16 3-15 3-22 4-13 13-25 8-11z" fill="#378C92"/>
<path transform="translate(973,1264)" d="m0 0 3 3 1 7h2l3 10 2 3v4h2l4 6 6 17 6 14 4 11 2 6 2 3 6 18 3 6v5h2l2 6 2 10 1 4v2h2l2 10 2 1 2 7 2 2 3 10 2 6 2 7 1 1 2 10 2 2v4h2l5 10v4h2l6 19 4 6 1 5 4 4v8l1 4h2l1 7 3 7 1 5 3 9 4 7 3 10v4h4v5h2l1 8 3 1v6l10 20 3 9-3 1-9-11-8-13-5-12-6-21-10-25-9-27-7-16-5-15-7-16-8-24-5-14-7-18-6-21-8-20-9-27-10-24-6-16-6-14-6-17z" fill="#378C92"/>
<path transform="translate(423,541)" d="m0 0h70l39 2 7 1v1h-267v270h-1l-1-34-2-28 1-33 1-24-1-7-1-14-2-69v-45l1-15 1-3 6-1h27z" fill="#378C92"/>
<path transform="translate(306,50)" d="m0 0h59l36 1 3 1 27 1h9l13 2 1-4 5 1 1 3-6 1h-11l-5 1-2 1-19 1h-34l-18 1h-42l-2 1-3-2-14-1h-25l-2-1-10 2h-46l-5-1v-1l-25-1v-1l19-1v-1l26-2h25z" fill="#378C92"/>
<path transform="translate(1980,350)" d="m0 0 3 1 1 3v13l-1 11v50l-1 85v365l1 182v133l-1 125h-1l-1-289v-128l-1-344-1-34v-172z" fill="#378C92"/>
<path transform="translate(277,128)" d="m0 0h26l19 1 12 3 10 7 4 4v24l-3-3-1-7-2-9-4-8-7-2-9-2v-2l-4-2h-7l-9 4-6 3-4 4-2 8-3 10-1 5-2 19 2 7 4 4 3 6h10l3 2-27 2-7-3v-64l2-8z" fill="#378C92"/>
<path transform="translate(354,1087)" d="m0 0h65l80 1 26 1 9 1v1h-262v268h11v1h-12l-2-6-1-37v-26l1-23 1-11v-27l-1-6-1-57-1-9 1-58 2-10 8-2z" fill="#378C92"/>
<path transform="translate(1227,844)" d="m0 0h1l1 5v73l2 20 1 53 2 62v38l-2 47v56l1 42v17l-2 13-3 3-7-8-3-4 1-2 10 9v-11l-1-13-1-223z" fill="#378C92"/>
<path transform="translate(1047,1139)" d="m0 0 9 2 9 3 8 3v2l4 2 1 6-6-1-3-4-1-3-10-2h-9v2l4 2 3-1 6 1 4-1 1 5v3l2 1v2l5 1 5 6 8 4 4 6 3 3h-2l-1 2-6 2v-3l-7-1-1 1-10-1-10-3v-2l-8 1-7-1-3-5-6-4-4-4-5-3-2-4 4-4 2-4 8-5 6-2h5z" fill="#378C92"/>
<path transform="translate(1099,1207)" d="m0 0 3 1 2 3v3h2l3 6v2h2l4 5v2l3 1 5 5 3 4v2h2l8 12v2h2l1 4 5 5v3h2l1 5 3 1 2 6h2l6 10 4 8v2h2l2 5v3h2v2h2v2h2l2 5h2l2 6v2l4 4v2l5 2v3h2v2l4 2 6 5 1 2 5 3 3 3-1 3-6 1-9-6-15-14-11-13-13-18-11-19-10-15-11-17-10-19-6-11-8-15z" fill="#378C92"/>
<path transform="translate(1833,1573)" d="m0 0h1v37l1 17 1-1 1-30 3-3v21l-1 17 140 1 7 2 1-2 2 4v4l-6 3v1h-27l-10-2v2l-26-1-23-2-22-3-7-1h-23l-9-3-3-2-2-30v-11z" fill="#378C92"/>
<path transform="translate(272,1087)" d="m0 0m-2 1h2v2h-2l-1 10-1 58 1 9 1 57 1 6v27l-1 11-1 23v26l1 37 1 6h12l-3 2-4 1h-10l-1-1-1-7-1-47-1-26v-68l1-20 1-59 2-39 3-7z" fill="#378C92"/>
<path transform="translate(205,1026)" d="m0 0h4l-1 4-2 3 2 81 1 99v121l-1 35-2 32 1 20 1 2 1 13-3 1-1-3-1-24v-381z" fill="#378C92"/>
<path transform="translate(666,341)" d="m0 0h26l4 2 8 1 9-1 14 1 13 1h10l18 1 20 1 1 2-180 1h-139v-1l6-2h5l3 2v-2l27-2h16l10 1 15-1h9l13 1h9l12-2h19l6 1 5-2h35z" fill="#378C92"/>
<path transform="translate(1692,1186)" d="m0 0 9 1 5 2 12 3 16 8v2l4 1v2l4 1 5 6 5 4v2l3 1 7 8 7 6 7 11 3 7 1 8v12l1 13 2 64v73l-2 103h-1v-201l-1-32-2-25-1-6-4-2-6-7-4-7h-3l-6-11-11-13-10-10-14-9-20-8-10-5z" fill="#378C92"/>
<path transform="translate(1531,684)" d="m0 0h308v1l-5 1-69 1h-604v-1l145-1h166z" fill="#378C92"/>
<path transform="translate(1310,717)" d="m0 0h33v1l-30 1-2 2h-4l-4 4-10 5h-2v2l-8 4v2l-5 3-5 5-8 6-3 3h-2l-5 6-9 12-1 3-2 1-4 7-2 2-1 17-2 15h-1l-1 50-1 6-2-1-1-24v-36l2-24 3-12 7-11 13-16 10-10 14-11 8-6 10-4z" fill="#378C92"/>
<path transform="translate(1040,962)" d="m0 0h2v9l7-4 2 5 9-1h15l10 2h5l1-1h9l5-4 5-1 1 3 10-4 1 3-3 5h-2v2l-10 5-14 3-1 2 7 2 41 1v1h-101l1-2 26-1v-1l-11-1h-14l-3-1-2-3v-6z" fill="#378C92"/>
<path transform="translate(1351,794)" d="m0 0 8 6 3 4 2 41v44l-1 165v54l2 28-3-1-2-4-1-68v-251l-3-9-5-6z" fill="#378C92"/>
<path transform="translate(1572,61)" d="m0 0h319v1l-275 1-1 1h-426l-45-1v-1z" fill="#378C92"/>
<path transform="translate(1027,477)" d="m0 0h79l56 1 5 2-2 7-6-5v-2l-6 1-74-1h-38l-2 1v5h-2v11l-2 23-1 14 4 7-1 4h-10l-3-3-1-4v-39l1-18z" fill="#378C92"/>
<path transform="translate(1978,523)" d="m0 0h1l1 34 1 344v145l-2 3-1-2z" fill="#378C92"/>
<path transform="translate(1981,69)" d="m0 0 3 1 1 3 1 37v76l-1 81-1 7-1 1h-6l3-2-1-93v-55l1-45z" fill="#378C92"/>
<path transform="translate(1634,64)" d="m0 0h293l34 1 12 2 5 5v21h-1l-2-14-4-7-2-2-7-1-23-1-244-1-172-1v-1z" fill="#378C92"/>
<path transform="translate(1092,1116)" d="m0 0 10 1 12 5 11 8 13 12 11 12 10 13 10 15 10 16 17 26 1 4h-2v-2l-4-1-5-4-2-4-4-4v-3h-2v-3h-2l-6-8 3-2v-3l-4-1-1-3-3-1v5l-4-4v-2h-2v-3l-5-2-5-6-6-3v-2l-4-2-2-3-1-9-3-4-2-5h-2l-1-3 4 2 3 3v2l4 1-5-7-2-2-6-8-5-5-10-7-19-8z" fill="#378C92"/>
<path transform="translate(209,1027)" d="m0 0 2 3-2 5v24l1 27 1 48v301l-1 2-2-1-1-13-1-2-1-22 2-30 1-35v-121l-1-107-2-74z" fill="#378C92"/>
<path transform="translate(206,493)" d="m0 0 2 1 1 39 1 95v71l-1 58-1 33-1 17-1 1-1 60h-1v-124h1l1-197z" fill="#378C92"/>
<path transform="translate(70,69)" d="m0 0 2 1-1 7-2 9-1 127-1 58-3-1-1-10-1-87v-79l1-17 3-5z" fill="#378C92"/>
<path transform="translate(512,1158)" d="m0 0 3 3-4 7-3 1v2l-8 7-4 6-6 5-5 5-5 2v2l-5 3-11 5-1 2h-3l-1 4-7 6-7 12-9 4-7 3-4 3h-4l-1 3-1-3-2 3 1 2-3 2-5-1 12-14 8-7 10-9 11-9 10-8 13-9 13-10 14-12z" fill="#378C92"/>
<path transform="translate(1640,987)" d="m0 0h185l15 1-2 2-79 1h-256l-1-2 88-1z" fill="#378C92"/>
<path transform="translate(533,1232)" d="m0 0v3l-13 13-8 7-17 17-8 7-13 11-10 7-13 10-10 7-11 9-17 17-4 3h-6l-7-7-2-4 12-1 5-3h3l2-4 8-3 5-4 5-5h2v-2l7-4 5-6 5-3h3l1-3 5-4 2-3h3l1-3h3v-2h2v-2l6-5 4-1v-2l4-3h2v-2l5-4 4-4 14-7 2-3h2l2-5 4-5h2v-2z" fill="#378C92"/>
<path transform="translate(1520,271)" d="m0 0h41l250 1h93l67-1 5 3v1l-342-1h-160l-146-1v-1z" fill="#378C92"/>
<path transform="translate(1231,477)" d="m0 0h221v1l-30 1-15 1v1l-21 1h-155l-2 1 1-5z" fill="#378C92"/>
<path transform="translate(208,495)" d="m0 0h2l2 63v122l-1 75-2 62-1 9-2 63h-1v-81l1-1 1-17 1-33 1-58v-78l-1-88-1-37z" fill="#378C92"/>
<path transform="translate(508,616)" d="m0 0 1 2-5 8-7 6h-2l-2 5-10 7-4 4-1 2h-2l-4 8h-2l-1 4-5 5-5 4-12 7-11 8-8 3-5-1 12-12 8-7 16-16 11-9 20-14 12-9z" fill="#378C92"/>
<path transform="translate(423,541)" d="m0 0h70l39 2 7 1v1l-269 1 1-3 3-1h27z" fill="#378C92"/>
<path transform="translate(1841,510)" d="m0 0h1v34l-1 1h-493v-1l161-1 230-1 100-1 1-3z" fill="#378C92"/>
<path transform="translate(382,478)" d="m0 0h225v1l-24 2-79 2h-64l-3-1-52-1-4-2z" fill="#378C92"/>
<path transform="translate(1088,1776)" d="m0 0h13l1 2-10 1-1 18v251h-2l-1-19-1-56v-184z" fill="#378C92"/>
<path transform="translate(1812,1182)" d="m0 0 5 5 8 14 11 21 3 13-1 18-2 25-1 22v170l1 90-1 31v16l1 15 1 6-2 2-1-3-1-17v-105l-1-111v-61l1-63 2-23v-13l-13-32-7-13-3-4z" fill="#378C92"/>
<path transform="translate(1830,1380)" d="m0 0h1l1 21h1l1 104v68l-2 18h-1v-16h-2l-3-9v-12l1-2 1-14 1-42z" fill="#378C92"/>
<path transform="translate(1882,1707)" d="m0 0h166v4h-261l1-2z" fill="#378C92"/>
<path transform="translate(354,1087)" d="m0 0h65l80 1 26 1 9 1v1h-182l-78-1 4-2z" fill="#378C92"/>
<path transform="translate(533,687)" d="m0 0 4 1-10 9-12 11-8 7-13 12-12 9-6 4-26 20-5 3 1-4h2l1-4h2l2-4 6-5 5-7h2l2-5 5-4 1-2h3l2-4 6-5 1-2h2v-2l10-2 7-3 3-1 1-2h3l1-4 5-4 2-3 7-6z" fill="#378C92"/>
<path transform="translate(302,347)" d="m0 0h23l124 2v1l-199 1h-129v-2l68-1z" fill="#378C92"/>
<path transform="translate(279,1025)" d="m0 0h36l37 1h19l9 1-2 2-5 1-21 1-6 1-54 1-21-1-15-2-8-2v-2z" fill="#378C92"/>
<path transform="translate(205,478)" d="m0 0h45v1l-22 1-15 2-5 5-1 3v59l-1 243h-1l-1-86v-227z" fill="#378C92"/>
<path transform="translate(1775,1836)" d="m0 0 3 1 1 40v24l-1 83-6 2h-15v-1l16-2 2-2-1-1-1-24v-114z" fill="#378C92"/>
<path transform="translate(423,129)" d="m0 0h14v1l-11 1-3 2h-6l-1 4-3 5-2 10-2 32 1 9v2h2l4 4 5 3 1 3-9-2-6-5-7-14-1-7v-9l2-15 5-13 7-8 4-2z" fill="#378C92"/>
<path transform="translate(1761,1242)" d="m0 0 4 5 8 14 1 3 2 29 1 2v63l-1 122-1 54h-1l-1-252-2-11-9-20-2-6z" fill="#378C92"/>
<path transform="translate(148,129)" d="m0 0 6 1-4 4-4 3h-2v2h-3l-3 12-2 21-1 9v14l4 8v2h6l-3 2h-8l-5-2-2-13v-16l2-23 3-10 6-8 5-4z" fill="#378C92"/>
<path transform="translate(543,1352)" d="m0 0h1v7l-1 2-22 1-121 1h-22l-90-2v-1l85-1h157l12-1z" fill="#378C92"/>
<path transform="translate(439,129)" d="m0 0h34l4 2v72l-7 1h-26v-1l11-2v2l3-1-1-2 7-3 4-2 2-6v-41l-1-8-3-5-10-4-17-1z" fill="#378C92"/>
<path transform="translate(1229,873)" d="m0 0 2 1 1 7 1 27v24l1 12 1 30v87l-2-4-2-67-1-48-2-20v-48z" fill="#378C92"/>
<path transform="translate(198,344)" d="m0 0h128l6 2-1 2h-166v-1l14-1v-1h17z" fill="#378C92"/>
<path transform="translate(318,477)" d="m0 0h275v1l-211 1-5 1h-27l-5 1h-73l-4-1v-2z" fill="#378C92"/>
<path transform="translate(1025,783)" d="m0 0h136l4 2-47 1-62-1h-17l1 2-1 2-7 4-5 2-1-3v61l1-2 4 1 1 7 6 2v1l-11 1-3-1-1-3v-55l1-19z" fill="#378C92"/>
<path transform="translate(210,501)" d="m0 0h1l1 9 1 3 3 12 3 6-2 9-3-1 1 72-1 79-1 55h-1l-1-187-1-35z" fill="#378C92"/>
<path transform="translate(325,1168)" d="m0 0 6 1 6 4 9 10 5 6-1 3-7-1-6-4-3-1h-10l-7 2-5 2 6 2-3 3-7 2-5-2 12-16z" fill="#378C92"/>
<path transform="translate(1232,817)" d="m0 0h1l1 60 2 71 1 89v154h-1l-1-77v-53l-1-87-1-30-1-17v-19l-1-27z" fill="#378C92"/>
<path transform="translate(1834,913)" d="m0 0 3 1 2 4v5l-9 1-7-2-17 1-16-2v-2l-9 1v-2h-14l-6-2 3-2h68z" fill="#378C92"/>
<path transform="translate(210,778)" d="m0 0h1v48l-2 28-1 27 1 7 3-1 5 1 7 1h22 4l12 1 3 2v2h-52l-5-2-2 2v-39l1-29 1-9 1-28z" fill="#378C92"/>
<path transform="translate(1289,655)" d="m0 0 3 1-1 2 4-1 6 3-2 5v2 3h-18l-7 1-5-2-1 1h-6l-1-4v-2l-3-1 1-6 4-1 7 1h8l3 1z" fill="#378C92"/>
<path transform="translate(1527,783)" d="m0 0h308l5 1v1l-151 1-21-1-141-1z" fill="#378C92"/>
<path transform="translate(1292,1273)" d="m0 0h1l1 19 1 8v11l-2 10-4 6-8 9h-2l-2 4-9 8-5 5-6 4-6-2 2-4 2-2 6-1 1-4 10-9 6-7h2l2-4 1 2 3-2 3-10v-17h2l-1-4 1-14v-5z" fill="#378C92"/>
<path transform="translate(211,1027)" d="m0 0 10 1-2 4-4 2h-4l1 56 1 23v197h-1l-1-161-1-15-1-48-1-30v-21z" fill="#378C92"/>
<path transform="translate(1332,657)" d="m0 0 10 3h3l7 1 1 1 2-3 5 1 7 6-1 2-8 1h-2v-2h-6l-4 2-12 2h-12l-2-1v-2h-6l-1 2-6-2 3-2v-3l2-2 2 3 5-5 5-1v2l6-2z" fill="#378C92"/>
<path transform="translate(1952,64)" d="m0 0h17l11 2 2 4-1 10-1 45v55l1 93-1 1-7-1-2-2 6-1v-198l-1-3-6-2-18-2z" fill="#378C92"/>
<path transform="translate(1773,1972)" d="m0 0h1l1 8v3l-8 2-17 2h-226v-1l155-1 58-2 30-2h6z" fill="#378C92"/>
<path transform="translate(65,67)" d="m0 0 3 1 2 2-5 4-1 3-1 17-2 2-1 22-3 8-2-2-2-6-2-1v-12l-1-4 2-6 2-16 4-7z" fill="#378C92"/>
<path transform="translate(1706,1740)" d="m0 0h1v10l2 9-2 10-1 4h-2l-2 4-7 3-8-1-11 1h-155v-1l145-1 11-2 16-1v-2l2-1 5-10z" fill="#378C92"/>
<path transform="translate(263,796)" d="m0 0h1l1 21 1 1 11-1 5-1h87v1l-27 1v2l-8 2h-41l-7 1-2-4-18 2-4-3z" fill="#378C92"/>
<path transform="translate(1968,271)" d="m0 0 5 1 3 3-336-1v-1l264-1z" fill="#378C92"/>
<path transform="translate(781,11)" d="m0 0 6 3 1 4-1 2h-5l-3-2-10 2-3 2h-18l-10 2h-28l1-3h9l17-4h8l6-2 7 1 5-2 5 1z" fill="#378C92"/>
<path transform="translate(1152,1711)" d="m0 0 3 1v2h2l2 9 1 5 2 11v12l-2 9-2 5-2 2-1 7h-9v-1l7-2v-18z" fill="#378C92"/>
<path transform="translate(1812,1182)" d="m0 0 5 5 8 14 11 21 3 13-1 18-2 25-2 58-2-3 1-63 2-23v-13l-13-32-7-13-3-4z" fill="#378C92"/>
<path transform="translate(1650,1109)" d="m0 0h16l9 4 31 4 18 3 15 4 24 12 1 3-6-2-10-5-11-4-16-5-9-2-39-4-23-4-2-2z" fill="#378C92"/>
<path transform="translate(62,349)" d="m0 0 4 1h-2v4h-2l1 8v47l1 22h1v6l-1 3-1 30h-2v32h-1v-112l1-40z" fill="#378C92"/>
<path transform="translate(1520,1155)" d="m0 0h2l1 2h5l-2-2 9 1 7 4-4 1 6 7 4-2v2l3 1-1 3-7 1-15-4v-3l-14-1h-7l-3-1 1-5h9l7-1z" fill="#378C92"/>
<path transform="translate(1165,784)" d="m0 0 2 2-2 3-2 15-1 2-3-1-3-11-6-2-33-3-6-1 1-2 7-1z" fill="#378C92"/>
<path transform="translate(654,492)" d="m0 0h9l9 6 12 15v2l-5-2-8-8-10-4-5 1-1 2h-2v2h-11l-2-2 7-9z" fill="#378C92"/>
<path transform="translate(1739,1644)" d="m0 0 1 2-6 11-12 23-6 14-3 11-5 31-7 26-2 3-1-2v-9l8-22 3-15 3-22 4-13 13-25 8-11z" fill="#378C92"/>
<path transform="translate(1176,1838)" d="m0 0 6 1 27 1 232 1v1h-274l2-3z" fill="#378C92"/>
<path transform="translate(1442,1089)" d="m0 0 16 2v2h15l6 5 54 3 26 1v1l-22 1h-18l-30-2-27-4-12-3-9-4z" fill="#378C92"/>
<path transform="translate(1028,477)" d="m0 0h78l56 1 5 2-2 7-6-5v-2l-6 1-74-1-36-1-15-1z" fill="#378C92"/>
<path transform="translate(699,1076)" d="m0 0 3 3 3 7v7l-5 5-14 8-14 11-7 5-2-1 8-7 4-6 8-6h3l2-5 3-4h2l2-4h2v-6h2z" fill="#378C92"/>
<path transform="translate(477,131)" d="m0 0 2 1v71l-5 3h-49v-1l45-2 6-1v-70z" fill="#378C92"/>
<path transform="translate(64,270)" d="m0 0 4 1 261 1v1h-254v2h-5l-6-2z" fill="#378C92"/>
<path transform="translate(547,1291)" d="m0 0 2 1-1 7 2 1-1 1 1 4 1 17v11l-1 15-1 5-4 1v-55l1-7z" fill="#378C92"/>
<path transform="translate(1278,1153)" d="m0 0 2 4 1 33v38l-1 12-2-4-3-31-1-10 3-20 1-4z" fill="#378C92"/>
<path transform="translate(1697,1758)" d="m0 0h1l1 8-4 7h-2v2l-3 1-13 1-11 2h-142v-1l101-1 43-1 21-3 4-2 3-9z" fill="#378C92"/>
<path transform="translate(1054,1483)" d="m0 0 3 4 6 17 8 20 9 27 12 30 7 16 7 13-1 2-8-11-8-16-7-24-10-25-9-27-7-16z" fill="#378C92"/>
<path transform="translate(271,700)" d="m0 0h1v115h-1l-1-34-2-28 1-33 1-19z" fill="#378C92"/>
<path transform="translate(321,129)" d="m0 0 11 2 11 7 5 5v24l-3-3-1-7-2-9-4-8-7-2-9-2v-2l-4-2v-2z" fill="#378C92"/>
<path transform="translate(1823,1458)" d="m0 0 2 1 2 9v6l1 2v10l-1 9v5l-4 5-2-22-1-10-1-1-1-13z" fill="#378C92"/>
<path transform="translate(1773,1758)" d="m0 0h1l1 15 49 2 10 1v2h-61l-3-1 1-11z" fill="#378C92"/>
<path transform="translate(1062,1106)" d="m0 0 8 1 5 3 4 4 10 1-4 2h-16l-11-1h-15l4-2z" fill="#378C92"/>
<path transform="translate(1320,768)" d="m0 0h8l11 6 4 4-7 1-2 5h-10l-3-2 3-1-5-2-1-2 1-3 5-2-5-2z" fill="#378C92"/>
<path transform="translate(1027,477)" d="m0 0 3 1-1 3h-2v50l-1 12-2-1-1-4v-39l1-18z" fill="#378C92"/>
<path transform="translate(1092,1116)" d="m0 0 10 1 12 5 11 8 13 12 11 12 7 9-1 2-5-5-14-15-8-8-15-11-21-9z" fill="#378C92"/>
<path transform="translate(1641,911)" d="m0 0h31l165 1-3 2-4 1v-2h-169l-20-1z" fill="#378C92"/>
<path transform="translate(686,517)" d="m0 0 5 5 9 7v7l-8 10-6 8-2-1v-5l3-6h3l1-13v-2l-5-1v-3-2z" fill="#378C92"/>
<path transform="translate(544,1235)" d="m0 0h1l1 11v73l-2 31h-1v-77z" fill="#378C92"/>
<path transform="translate(325,624)" d="m0 0 7 1 8 7 9 9 3 5-5-2-5-5-5-4-3-1h-7l-9 2-3-1z" fill="#378C92"/>
<path transform="translate(1838,650)" d="m0 0 2 3 1 2v22l-8-1h-7l-2-2 7-4 2-3 2-11 2-5z" fill="#378C92"/>
<path transform="translate(210,778)" d="m0 0h1v48l-3 42-2 1v-14l1-29 1-9 1-28z" fill="#378C92"/>
<path transform="translate(208,790)" d="m0 0h1v27l-1 9-2 63h-1v-81l1-1 1-16z" fill="#378C92"/>
<path transform="translate(205,478)" d="m0 0h45v1l-22 1-15 2-5 5-2 5-1 53h-1v-66z" fill="#378C92"/>
<path transform="translate(1584,1104)" d="m0 0h34l29 1 15 2 2 2h-16l-12-1-33-1-15-1z" fill="#378C92"/>
<path transform="translate(1229,479)" d="m0 0h10l8 1 139 1v1h-155l-2 1z" fill="#378C92"/>
<path transform="translate(136,60)" d="m0 0h31v1l91 1v1h-111l-11-1z" fill="#378C92"/>
<path transform="translate(1968,271)" d="m0 0 5 1 3 3-84-1v-1l12-1z" fill="#378C92"/>
<path transform="translate(1442,1089)" d="m0 0 16 2v2h15l7 6v1l-13-1-17-4-9-4z" fill="#378C92"/>
<path transform="translate(1271,1097)" d="m0 0 4 1 3 12v20h-1l-2-17-2-4-2 1-1 12-2-1-1-11v-9z" fill="#378C92"/>
<path transform="translate(403,147)" d="m0 0h1v44l-3-4-2-10v-9l2-15z" fill="#378C92"/>
<path transform="translate(621,1327)" d="m0 0h1v92l-2 3-1-8z" fill="#378C92"/>
<path transform="translate(1712,1701)" d="m0 0 1 4-5 31-7 26-2 3-1-2v-9l8-22 3-15 2-15z" fill="#378C92"/>
<path transform="translate(1085,1116)" d="m0 0h7l21 9 12 9 1 2-2 1v5h2l-1 2-7-6v-6l-7-5-9-2v-2l-9-2-8-4z" fill="#378C92"/>
<path transform="translate(274,131)" d="m0 0h1v29l-1 23v18l1 3-3-1v-64z" fill="#378C92"/>
<path transform="translate(1192,1618)" d="m0 0 3 3 13 28 5 13 5 19-1 3-9-26-15-35z" fill="#378C92"/>
<path transform="translate(1229,873)" d="m0 0h1l1 16v53h-1l-2-20v-48z" fill="#378C92"/>
<path transform="translate(1031,608)" d="m0 0h21l-4 4-12 2-7 1-1 4-3-2-1-8z" fill="#378C92"/>
<path transform="translate(131,145)" d="m0 0h1l-1 31-1 21-1 5h-1l-1-10v-16l2-23z" fill="#378C92"/>
<path transform="translate(603,786)" d="m0 0 3 2-1 8v4l-3 2-9 1-5-5 5-2 2-3h4v-2l2-1z" fill="#378C92"/>
<path transform="translate(1812,1182)" d="m0 0 5 5 8 14 9 17 1 10-1 4-11-28-8-15-3-4z" fill="#378C92"/>
<path transform="translate(505,838)" d="m0 0 4 1-1 2h8v2l-4 2-10-1-4 2-17-1-3 1-4-2v-2h13l-1-3h9l-2 2h14v-2z" fill="#378C92"/>
<path transform="translate(700,530)" d="m0 0 3 3 1 6-6 8-11 10-4 2 2-4 6-9 8-10z" fill="#378C92"/>
<path transform="translate(1837,912)" d="m0 0 3 1 2 7v68h-1l-2-61-1-9-1-4-2-1z" fill="#378C92"/>
<path transform="translate(614,869)" d="m0 0 3 1 2 2 2 7-7 7-7-3v-4l4-4 1-4h2z" fill="#378C92"/>
<path transform="translate(678,1053)" d="m0 0 5 5 7 8v3l-10-2-3-4-7-2-1-2 6-1 2-4z" fill="#378C92"/>
<path transform="translate(1785,477)" d="m0 0h50l6 2 1 7-8-5-10-1-39-2z" fill="#378C92"/>
<path transform="translate(1761,1242)" d="m0 0 4 5 8 14 1 3v14l-2-4-5-12-7-16z" fill="#378C92"/>
<path transform="translate(1159,851)" d="m0 0h2l-2 5-5 4h-21l3-3 16-4z" fill="#378C92"/>
<path transform="translate(1165,1973)" d="m0 0h1l1 9 4 2 82 1v1l-88 1-1-2z" fill="#378C92"/>
<path transform="translate(1085,1569)" d="m0 0h2l10 24 9 17-1 2-8-11-8-16z" fill="#378C92"/>
<path transform="translate(62,349)" d="m0 0 4 1h-2v4h-2l1 8v43l-2 1-1-4 1-52z" fill="#378C92"/>
<path transform="translate(1026,1119)" d="m0 0 2 1-3 3-15 8-1 2-6 3-8 6-4 4-2-1 12-12 14-10z" fill="#378C92"/>
<path transform="translate(1029,480)" d="m0 0 2 1-1 2-1 17v42l-1 2h5v1h-6l-2-2 1-12v-36l1-14z" fill="#378C92"/>
<path transform="translate(1702,1194)" d="m0 0 7 1 16 7 10 7 10 9 6 9-1 2-12-13-10-9-12-7-14-5z" fill="#378C92"/>
<path transform="translate(1493,1167)" d="m0 0h17l21 2 12 3v1l-17-1-27-2-7-1z" fill="#378C92"/>
<path transform="translate(1834,1545)" d="m0 0h2v15l-1 31v16l1 15 1 6-2 2-1-3-1-17v-23z" fill="#378C92"/>
<path transform="translate(1892,61)" d="m0 0h66l14 2 6 2-4 1-5-1-17-1v-1l-60-1z" fill="#378C92"/>
<path transform="translate(270,643)" d="m0 0h1v53l-2-4-1-17v-17z" fill="#378C92"/>
<path transform="translate(654,492)" d="m0 0h9l9 6 9 11v2l-4-2-7-7-8-5-8-3z" fill="#378C92"/>
<path transform="translate(424,781)" d="m0 0 2 1-14 15-4 3-5-1-2-3 10-5 5-2v-2z" fill="#378C92"/>
<path transform="translate(206,792)" d="m0 0h1v15l-1 1-1 60h-1v-74h2z" fill="#378C92"/>
<path transform="translate(1376,1149)" d="m0 0 5 2 9 4 5 2 6 3v2l2 1h-12l-10-9z" fill="#378C92"/>
<path transform="translate(63,182)" d="m0 0h1l1 74 2 15-3-1-1-10z" fill="#378C92"/>
<path transform="translate(330,202)" d="m0 0h5l-3 3-5 1h-46v-1l9-1 37-1z" fill="#378C92"/>
<path transform="translate(1733,1979)" d="m0 0h40v2l-6 1-41-1v-1z" fill="#378C92"/>
<path transform="translate(1839,1593)" d="m0 0h1v21l-1 17h-2l-1-5 1-30z" fill="#378C92"/>
<path transform="translate(1062,1106)" d="m0 0 8 1 5 3 2 3-24-1 5-4z" fill="#378C92"/>
<path transform="translate(704,1087)" d="m0 0h1v6l-5 5-14 8-4 2 3-5 8-6h2v-2l8-7z" fill="#378C92"/>
<path transform="translate(323,1172)" d="m0 0 4 1 1 2-4 5-6 3-6 4-3-1 10-11 1-2z" fill="#378C92"/>
<path transform="translate(1978,237)" d="m0 0 2 3 1 33-1 1-7-1-2-2 6-1z" fill="#378C92"/>
<path transform="translate(348,145)" d="m0 0 2 3 1 6v20l-2 11h-1z" fill="#378C92"/>
<path transform="translate(1223,1694)" d="m0 0 4 4 3 9v23h-1l-5-29z" fill="#378C92"/>
<path transform="translate(371,1210)" d="m0 0 7 6 17 17 7 9 2 1v2l2 1-5-1v-2l-5-2-5-7-3-5-7-6v-2h-2l-7-8z" fill="#378C92"/>
<path transform="translate(1839,1587)" d="m0 0h1v6l-2 3-1 27-2-1-1-15v-16l3 1z" fill="#378C92"/>
<path transform="translate(274,542)" d="m0 0h25l4 3-33 1 1-3z" fill="#378C92"/>
<path transform="translate(1133,1776)" d="m0 0 4 1-2 4h-21l-5-2 2-2h6v2l8-2z" fill="#378C92"/>
<path transform="translate(1203,1240)" d="m0 0 3 1 4 6 3 10 2 4-4-1v-2h-2l-3-5-2-5-1-1z" fill="#378C92"/>
<path transform="translate(1975,66)" d="m0 0h5l2 4-1 10-1 45h-1l-1-57-3-1z" fill="#378C92"/>
<path transform="translate(1215,1255)" d="m0 0 3 3 4 7 6 7 3-2 2 2-2 9h-3l-8-15-5-8z" fill="#378C92"/>
<path transform="translate(1149,914)" d="m0 0 6 2 7 7 2 6-1 2-4-1-3-7-6-4z" fill="#378C92"/>
<path transform="translate(306,344)" d="m0 0h20l6 2-1 2h-21l-5-1z" fill="#378C92"/>
<path transform="translate(1295,794)" d="m0 0 2 1-3 3-1 3-2 32h-1l-1-12v-14l1-8h2l2-4z" fill="#378C92"/>
<path transform="translate(1769,1580)" d="m0 0 1 3-8 24-2 1v-7l3-12z" fill="#378C92"/>
<path transform="translate(1833,785)" d="m0 0h8l1 4v60h-1l-1-55-2-7-5-1z" fill="#378C92"/>
<path transform="translate(470,203)" d="m0 0h6l-2 3h-49v-1z" fill="#378C92"/>
<path transform="translate(1697,1758)" d="m0 0h1l1 8-4 7h-2v2l-3 1-13 1-3 1h-8l2-2 21-3 4-2 3-9z" fill="#378C92"/>
<path transform="translate(196,129)" d="m0 0h8l2 1v8l-4 2-3-1-3-9z" fill="#378C92"/>
<path transform="translate(466,51)" d="m0 0h11l11 2-1 2h-25l-1-3z" fill="#378C92"/>
<path transform="translate(1840,802)" d="m0 0h1v41l-2-2-2-12 2-8z" fill="#378C92"/>
<path transform="translate(327,633)" d="m0 0h7l5 2v1l-14 3-8-1-1-2z" fill="#378C92"/>
<path transform="translate(1952,64)" d="m0 0h17l6 2 4 2v25h-1l-1-21-1-3-6-2-18-2z" fill="#378C92"/>
<path transform="translate(1205,1356)" d="m0 0h25l6 1-2 2h-21l-8-2z" fill="#378C92"/>
<path transform="translate(370,677)" d="m0 0 6 2h5l-1 4-1 2-1 4-4-1-4-8z" fill="#378C92"/>
<path transform="translate(1053,663)" d="m0 0 3 2v2l4-3 4 1 2 2-9 3-1 1-8 1v-3l5-2z" fill="#378C92"/>
<path transform="translate(1232,1774)" d="m0 0 42 2v1h-41z" fill="#378C92"/>
<path transform="translate(1439,1086)" d="m0 0 27 5 4 2h-12l-7-2-10-1z" fill="#378C92"/>
<path transform="translate(1800,1777)" d="m0 0h31l4 1v8l-7-6-1-1-27-1z" fill="#378C92"/>
<path transform="translate(373,667)" d="m0 0 6 4 14 15 4 5-4-1-7-8-3-2v-2l-4-2-2-4h-2v-2h-2z" fill="#378C92"/>
<path transform="translate(687,527)" d="m0 0h4l1 2-1 14-2 3-1-9-2-3z" fill="#378C92"/>
<path transform="translate(684,1103)" d="m0 0v3l-5 6-14 10-2-1 9-8h2l1-3z" fill="#378C92"/>
<path transform="translate(1268,736)" d="m0 0 2 1-23 23v-3l11-12z" fill="#378C92"/>
<path transform="translate(1474,1166)" d="m0 0h34v1l-15 1-1 1-27-1v-1z" fill="#378C92"/>
<path transform="translate(662,501)" d="m0 0 4 1 6 3 1 3-2 3-8-4z" fill="#378C92"/>
<path transform="translate(1386,731)" d="m0 0 5 1 11 7 10 9 3 3-1 2-12-11-16-10z" fill="#378C92"/>
<path transform="translate(610,478)" d="m0 0h8l3 2 1 3v11l-3-3-3-11-6-1z" fill="#378C92"/>
<path transform="translate(73,1631)" d="m0 0h26v1l-24 2h-10l-1-2z" fill="#378C92"/>
<path transform="translate(1834,622)" d="m0 0h5l2 4-1 11h-2l-3-9z" fill="#378C92"/>
<path transform="translate(81,66)" d="m0 0h2v2l3 1-11 2-2 4-3 2 1-7 4-3z" fill="#378C92"/>
<path transform="translate(1833,1587)" d="m0 0h1l2 35 1 6-2 2-1-3-1-17z" fill="#378C92"/>
<path transform="translate(1230,539)" d="m0 0 4 1 8 3 1 2h-11l-4-4z" fill="#378C92"/>
<path transform="translate(1165,1973)" d="m0 0h1l1 9 4 2 9 1v2h-15l-1-2z" fill="#378C92"/>
<path transform="translate(1761,1247)" d="m0 0h2l8 16 1 7-3-4-7-15z" fill="#378C92"/>
<path transform="translate(655,1038)" d="m0 0 9 1 9 6h-3l-7-2-5-1-3-2z" fill="#378C92"/>
<path transform="translate(1291,1299)" d="m0 0h1l1 5 2-4v11l-2 10h-1l-1-12z" fill="#378C92"/>
<path transform="translate(1743,1127)" d="m0 0 6 2 14 7 1 3-6-2-14-7z" fill="#378C92"/>
<path transform="translate(1049,929)" d="m0 0h3l1 8-4 1-1 2-2-2-3 1-2-2 4-2h4v-4z" fill="#378C92"/>
<path transform="translate(1772,1739)" d="m0 0 3 3v12l-2-4-4-2 1-7z" fill="#378C92"/>
<path transform="translate(1792,1184)" d="m0 0h2l4 9 4 10-1 2-2-2v-5h-2l-2-6-3-1-1-5z" fill="#378C92"/>
<path transform="translate(544,1091)" d="m0 0h1l3 12v3l-2 7-2 1z" fill="#378C92"/>
<path transform="translate(1839,1587)" d="m0 0h1v6l-2 3-1 27h-1v-30z" fill="#378C92"/>
<path transform="translate(308,1187)" d="m0 0 2 1-6 7-1 3-8 4-4 3 2-4 12-11z" fill="#378C92"/>
<path transform="translate(1838,609)" d="m0 0h2l2 5v20h-1l-2-22-7-1v-1z" fill="#378C92"/>
<path transform="translate(1218,1259)" d="m0 0 8 6 4 5-2 3-7-8-3-4z" fill="#378C92"/>
<path transform="translate(797,10)" d="m0 0h6v4l-4 3-4-1v-5z" fill="#378C92"/>
<path transform="translate(1650,1109)" d="m0 0h16l5 4-8-1-11-1z" fill="#378C92"/>
<path transform="translate(309,1374)" d="m0 0 5 1-1 2-16 1-1-3z" fill="#378C92"/>
<path transform="translate(325,624)" d="m0 0 7 1 4 4h-15z" fill="#378C92"/>
<path transform="translate(1827,1282)" d="m0 0h2l1 6v11l-1 9h-1l-1-25z" fill="#378C92"/>
<path transform="translate(206,1421)" d="m0 0 2 2 1 13-3 1-1-9z" fill="#378C92"/>
<path transform="translate(1160,478)" d="m0 0 7 2-2 7-6-5z" fill="#378C92"/>
<path transform="translate(168)" d="m0 0h16l1 3-16-1z" fill="#378C92"/>
<path transform="translate(1027,678)" d="m0 0 4 1 2 7h-7z" fill="#378C92"/>
<path transform="translate(1473,273)" d="m0 0h8l2 1v2h-15l-2-2z" fill="#378C92"/>
<path transform="translate(1710,1719)" d="m0 0 2 1-1 6v8l1 3-2 4-2-5 1-11z" fill="#378C92"/>
<path transform="translate(1833,785)" d="m0 0h8l1 4v17h-1l-2-18-6-2z" fill="#378C92"/>
<path transform="translate(211,1434)" d="m0 0h7v2l8 1v1h-14l-2-3z" fill="#378C92"/>
<path transform="translate(1119,1133)" d="m0 0 3 1v2l2 1v5h2l-1 2-7-6z" fill="#378C92"/>
<path transform="translate(544,549)" d="m0 0 3 3v7l-1 1-1 7h-1z" fill="#378C92"/>
<path transform="translate(697,539)" d="m0 0v3l-3 6-6 5v-3z" fill="#378C92"/>
<path transform="translate(202)" d="m0 0h15v2l-2 1h-7l-6-2z" fill="#378C92"/>
<path transform="translate(1440,1089)" d="m0 0 2 2 15 5v1l-9-1-8-3z" fill="#378C92"/>
<path transform="translate(703,1086)" d="m0 0 2 1-8 8h-2v2l-5 2 6-7z" fill="#378C92"/>
<path transform="translate(1027,531)" d="m0 0h1l1 11-1 2h5v1h-6l-2-2 1-11z" fill="#378C92"/>
<path transform="translate(220,485)" d="m0 0h10v1l-13 2-4 4-1 6h-1v-7l4-5z" fill="#378C92"/>
<path transform="translate(1773,1972)" d="m0 0h1l1 8v3l-2 1h-6v-3h6z" fill="#378C92"/>
<path transform="translate(1176,1838)" d="m0 0h2l-1 4h-10l2-3z" fill="#378C92"/>
<path transform="translate(459,842)" d="m0 0h8l-3 6-6-2z" fill="#378C92"/>
<path transform="translate(61,393)" d="m0 0 2 1v11l-2 1-1-4v-7z" fill="#378C92"/>
<path transform="translate(1769,1580)" d="m0 0 1 3-6 17-1-4 3-11z" fill="#378C92"/>
<path transform="translate(1062,1106)" d="m0 0 8 1 3 2h-15z" fill="#378C92"/>
<path transform="translate(1772,1144)" d="m0 0 5 1 8 8h-3l-10-8z" fill="#378C92"/>
<path transform="translate(1042,925)" d="m0 0h8l-1 4h-6z" fill="#378C92"/>
<path transform="translate(654,492)" d="m0 0 7 2 9 6-2 1-6-4-8-3z" fill="#378C92"/>
<path transform="translate(333,1171)" d="m0 0 4 2 8 9-2 1-10-10z" fill="#378C92"/>
<path transform="translate(1060,1179)" d="m0 0 7 1-2 2-12 1 3-3z" fill="#378C92"/>
<path transform="translate(1839,830)" d="m0 0 2 1v12l-2-2-1-9z" fill="#378C92"/>
<path transform="translate(1305,792)" d="m0 0h5l-6 7-2-3 1-3z" fill="#378C92"/>
<path transform="translate(670,500)" d="m0 0 3 1 8 8v2l-4-2-7-7z" fill="#378C92"/>
<path transform="translate(617,486)" d="m0 0 2 2 3 6v6l-3-3-2-7z" fill="#378C92"/>
<path transform="translate(684,1103)" d="m0 0v3l-5 6h-2l1-4z" fill="#378C92"/>
<path transform="translate(665,1043)" d="m0 0 6 2 2 1v3l-7-2z" fill="#378C92"/>
<path transform="translate(1837,912)" d="m0 0 3 1 1 2v6h-2l-2-7-2-1z" fill="#378C92"/>
</svg>
